<svg xmlns="http://www.w3.org/2000/svg" width="390" height="620" viewBox="0 0 390 620"><defs><linearGradient id="bg" x1="0" y1="0" x2="0" y2="1"><stop offset="0" stop-color="#03050A" stop-opacity="1"/><stop offset="0.62" stop-color="#071026" stop-opacity="1"/><stop offset="1" stop-color="#0B1632" stop-opacity="1"/></linearGradient><filter id="glow" x="-30%" y="-30%" width="160%" height="160%"><feGaussianBlur stdDeviation="7"/></filter><radialGradient id="vig" cx="0.5" cy="0.38" r="1.05"><stop offset="0.5" stop-color="#000" stop-opacity="0"/><stop offset="1" stop-color="#000" stop-opacity="0.55"/></radialGradient><filter id="grain" x="0" y="0" width="100%" height="100%"><feTurbulence type="fractalNoise" baseFrequency="0.85" numOctaves="2" stitchTiles="stitch"/><feColorMatrix type="saturate" values="0"/></filter></defs><style>
.b{opacity:0;animation:blockIn .7s cubic-bezier(.16,1,.3,1) forwards}
@keyframes blockIn{to{opacity:1}}
.s{opacity:0;animation:starIn .8s ease-out forwards}
@keyframes starIn{to{opacity:1}}
.l{animation:lineDraw 1.2s ease-out forwards}
@keyframes lineDraw{to{stroke-dashoffset:0}}
.n{animation:nodeIn .5s ease-out forwards}
@keyframes nodeIn{to{opacity:1}}
.beacon{animation:pulse 2.4s ease-in-out infinite}
@keyframes pulse{50%{opacity:.3}}
.caret{animation:blink 1.2s steps(2) infinite}
@keyframes blink{50%{opacity:0}}
.f{animation:flicker 7s ease-in-out infinite}
@keyframes flicker{0%,100%{opacity:.7}50%{opacity:.25}}

@media (prefers-reduced-motion: reduce){
  *{animation:none !important}
  .b{opacity:1 !important}
  .l{stroke-dashoffset:0 !important}
  .n,.s{opacity:1 !important}
  .caret{opacity:1 !important}
}
</style><rect x="0.0" y="0.0" width="390.0" height="620.0" rx="0" fill="url(#bg)" opacity="1.0"/><circle class="s" style="animation-delay:0.3s" cx="219.0" cy="422.6" r="0.8" fill="#C9D6E8" opacity="0.17"/><circle cx="269.1" cy="218.0" r="0.8" fill="#C9D6E8" opacity="0.22"/><circle cx="330.8" cy="393.9" r="0.8" fill="#C9D6E8" opacity="0.24"/><circle cx="75.3" cy="212.0" r="0.8" fill="#C9D6E8" opacity="0.27"/><circle class="s" style="animation-delay:0.46s" cx="350.1" cy="235.4" r="1.4" fill="#C9D6E8" opacity="0.32"/><circle cx="325.8" cy="383.6" r="0.8" fill="#C9D6E8" opacity="0.42"/><circle cx="198.1" cy="205.0" r="0.8" fill="#C9D6E8" opacity="0.34"/><circle cx="318.1" cy="333.3" r="0.8" fill="#C9D6E8" opacity="0.56"/><circle class="s" style="animation-delay:0.62s" cx="240.6" cy="119.3" r="0.8" fill="#C9D6E8" opacity="0.29"/><circle cx="116.6" cy="6.9" r="0.8" fill="#C9D6E8" opacity="0.21"/><circle cx="340.4" cy="32.9" r="1.4" fill="#C9D6E8" opacity="0.51"/><circle cx="230.8" cy="256.1" r="0.8" fill="#C9D6E8" opacity="0.4"/><circle class="s" style="animation-delay:0.3s" cx="175.6" cy="426.7" r="0.8" fill="#C9D6E8" opacity="0.33"/><circle cx="57.5" cy="305.9" r="0.8" fill="#C9D6E8" opacity="0.26"/><circle cx="83.1" cy="128.5" r="0.8" fill="#C9D6E8" opacity="0.42"/><circle cx="319.7" cy="361.9" r="1.4" fill="#C9D6E8" opacity="0.33"/><circle class="s" style="animation-delay:0.46s" cx="152.0" cy="425.2" r="0.8" fill="#C9D6E8" opacity="0.56"/><circle cx="377.6" cy="266.1" r="0.8" fill="#C9D6E8" opacity="0.42"/><circle cx="160.3" cy="239.2" r="1.4" fill="#C9D6E8" opacity="0.26"/><circle cx="24.0" cy="439.6" r="0.8" fill="#C9D6E8" opacity="0.41"/><circle class="s" style="animation-delay:0.62s" cx="283.6" cy="77.3" r="0.8" fill="#C9D6E8" opacity="0.25"/><circle cx="36.8" cy="18.9" r="0.8" fill="#C9D6E8" opacity="0.18"/><circle cx="153.0" cy="205.9" r="0.8" fill="#C9D6E8" opacity="0.35"/><circle cx="332.1" cy="403.4" r="0.8" fill="#C9D6E8" opacity="0.32"/><circle class="s" style="animation-delay:0.3s" cx="312.1" cy="23.9" r="0.8" fill="#C9D6E8" opacity="0.58"/><circle cx="64.1" cy="3.6" r="0.8" fill="#C9D6E8" opacity="0.36"/><circle cx="103.4" cy="466.2" r="0.8" fill="#C9D6E8" opacity="0.44"/><circle cx="274.9" cy="237.7" r="0.8" fill="#C9D6E8" opacity="0.18"/><circle class="s" style="animation-delay:0.46s" cx="13.4" cy="19.7" r="0.8" fill="#C9D6E8" opacity="0.24"/><circle cx="381.3" cy="422.9" r="0.8" fill="#C9D6E8" opacity="0.45"/><circle cx="58.6" cy="302.6" r="0.8" fill="#C9D6E8" opacity="0.22"/><circle cx="338.8" cy="202.4" r="0.8" fill="#C9D6E8" opacity="0.39"/><circle class="s" style="animation-delay:0.62s" cx="98.8" cy="302.3" r="0.8" fill="#C9D6E8" opacity="0.35"/><circle cx="7.1" cy="438.6" r="0.8" fill="#C9D6E8" opacity="0.24"/><circle cx="168.6" cy="232.1" r="0.8" fill="#C9D6E8" opacity="0.29"/><circle cx="232.2" cy="24.5" r="0.8" fill="#C9D6E8" opacity="0.58"/><circle class="s" style="animation-delay:0.3s" cx="294.8" cy="42.6" r="0.8" fill="#C9D6E8" opacity="0.28"/><circle cx="109.6" cy="483.9" r="0.8" fill="#C9D6E8" opacity="0.22"/><circle cx="313.7" cy="206.1" r="0.8" fill="#C9D6E8" opacity="0.38"/><circle cx="301.3" cy="406.9" r="0.8" fill="#C9D6E8" opacity="0.6"/><circle class="s" style="animation-delay:0.46s" cx="17.6" cy="332.0" r="0.8" fill="#C9D6E8" opacity="0.16"/><circle cx="62.4" cy="83.3" r="0.8" fill="#C9D6E8" opacity="0.59"/><circle cx="33.9" cy="499.0" r="1.4" fill="#C9D6E8" opacity="0.49"/><circle cx="251.2" cy="36.6" r="1.4" fill="#C9D6E8" opacity="0.51"/><circle class="s" style="animation-delay:0.62s" cx="205.8" cy="114.0" r="0.8" fill="#C9D6E8" opacity="0.31"/><circle cx="341.6" cy="423.8" r="0.8" fill="#C9D6E8" opacity="0.24"/><circle cx="361.8" cy="176.8" r="0.8" fill="#C9D6E8" opacity="0.42"/><circle cx="179.9" cy="434.5" r="0.8" fill="#C9D6E8" opacity="0.18"/><circle class="s" style="animation-delay:0.3s" cx="298.7" cy="451.4" r="0.8" fill="#C9D6E8" opacity="0.44"/><circle cx="275.0" cy="453.6" r="0.8" fill="#C9D6E8" opacity="0.18"/><circle cx="243.5" cy="269.1" r="0.8" fill="#C9D6E8" opacity="0.38"/><circle cx="137.5" cy="9.8" r="0.8" fill="#C9D6E8" opacity="0.49"/><circle class="s" style="animation-delay:0.46s" cx="283.5" cy="123.6" r="0.8" fill="#C9D6E8" opacity="0.5"/><circle cx="377.2" cy="2.5" r="0.8" fill="#C9D6E8" opacity="0.55"/><circle cx="251.6" cy="465.8" r="0.8" fill="#C9D6E8" opacity="0.22"/><g transform="translate(30.0 56.0) scale(0.8250)" opacity="0.85"><path class="l" style="animation-delay:0.00s" d="M40 150 Q120 34 200 100" fill="none" stroke="#8FD3FF" stroke-width="0.8" stroke-dasharray="196" stroke-dashoffset="196"/><path class="l" style="animation-delay:0.15s" d="M200 100 Q280 34 360 150" fill="none" stroke="#8FD3FF" stroke-width="0.8" stroke-dasharray="196" stroke-dashoffset="196"/><circle class="n" style="animation-delay:0.35s" cx="40" cy="150" r="1.6" fill="#C9D6E8" opacity="0"/><circle class="n" style="animation-delay:0.47s" cx="120" cy="80" r="1.2" fill="#C9D6E8" opacity="0"/><circle class="n" style="animation-delay:0.59s" cx="200" cy="100" r="2.6" fill="#8FD3FF" opacity="0"/><circle class="n" style="animation-delay:0.71s" cx="280" cy="80" r="1.2" fill="#C9D6E8" opacity="0"/><circle class="n" style="animation-delay:0.83s" cx="360" cy="150" r="1.6" fill="#C9D6E8" opacity="0"/></g><g class="b" style="animation-delay:.55s"><path transform="translate(107.8 300)" d="M1.5 -7.6V-24.6Q1.5 -28.4 3.5 -30.5Q5.5 -32.7 9.2 -32.7Q12.9 -32.7 14.9 -30.5Q16.9 -28.4 16.9 -24.6V-7.6Q16.9 -3.8 14.9 -1.7Q12.9 0.5 9.2 0.5Q5.5 0.5 3.5 -1.7Q1.5 -3.8 1.5 -7.6ZM11.8 -7.3V-24.9Q11.8 -28.1 9.2 -28.1Q6.6 -28.1 6.6 -24.9V-7.3Q6.6 -4.1 9.2 -4.1Q11.8 -4.1 11.8 -7.3Z M35.0 -32.2H40.1V0.0H35.0Z M58.2 -7.6V-24.6Q58.2 -28.4 60.2 -30.5Q62.1 -32.7 65.9 -32.7Q69.6 -32.7 71.6 -30.5Q73.6 -28.4 73.6 -24.6V-7.6Q73.6 -3.8 71.6 -1.7Q69.6 0.5 65.9 0.5Q62.1 0.5 60.2 -1.7Q58.2 -3.8 58.2 -7.6ZM68.5 -7.3V-24.9Q68.5 -28.1 65.9 -28.1Q63.2 -28.1 63.2 -24.9V-7.3Q63.2 -4.1 65.9 -4.1Q68.5 -4.1 68.5 -7.3Z M91.7 -32.2H98.0L102.9 -12.9H103.0V-32.2H107.5V0.0H102.3L96.3 -23.5H96.2V0.0H91.7Z M125.7 -7.6V-24.6Q125.7 -28.4 127.6 -30.5Q129.6 -32.7 133.4 -32.7Q137.1 -32.7 139.1 -30.5Q141.0 -28.4 141.0 -24.6V-7.6Q141.0 -3.8 139.1 -1.7Q137.1 0.5 133.4 0.5Q129.6 0.5 127.6 -1.7Q125.7 -3.8 125.7 -7.6ZM136.0 -7.3V-24.9Q136.0 -28.1 133.4 -28.1Q130.7 -28.1 130.7 -24.9V-7.3Q130.7 -4.1 133.4 -4.1Q136.0 -4.1 136.0 -7.3Z M158.3 -7.6V-9.5H163.1V-7.3Q163.1 -4.1 165.7 -4.1Q167.0 -4.1 167.6 -4.9Q168.3 -5.7 168.3 -7.4Q168.3 -9.4 167.4 -10.9Q166.5 -12.5 164.0 -14.6Q160.9 -17.4 159.6 -19.6Q158.4 -21.8 158.4 -24.7Q158.4 -28.5 160.3 -30.6Q162.2 -32.7 165.9 -32.7Q169.6 -32.7 171.4 -30.6Q173.3 -28.5 173.3 -24.6V-23.2H168.5V-24.9Q168.5 -26.5 167.9 -27.3Q167.2 -28.1 166.0 -28.1Q163.4 -28.1 163.4 -25.0Q163.4 -23.2 164.4 -21.7Q165.3 -20.2 167.8 -18.0Q171.0 -15.3 172.2 -13.0Q173.4 -10.8 173.4 -7.7Q173.4 -3.8 171.4 -1.7Q169.5 0.5 165.7 0.5Q162.1 0.5 160.2 -1.6Q158.3 -3.7 158.3 -7.6Z" fill="#8FD3FF" opacity="0.22" filter="url(#glow)"/><path transform="translate(107.8 300)" d="M1.5 -7.6V-24.6Q1.5 -28.4 3.5 -30.5Q5.5 -32.7 9.2 -32.7Q12.9 -32.7 14.9 -30.5Q16.9 -28.4 16.9 -24.6V-7.6Q16.9 -3.8 14.9 -1.7Q12.9 0.5 9.2 0.5Q5.5 0.5 3.5 -1.7Q1.5 -3.8 1.5 -7.6ZM11.8 -7.3V-24.9Q11.8 -28.1 9.2 -28.1Q6.6 -28.1 6.6 -24.9V-7.3Q6.6 -4.1 9.2 -4.1Q11.8 -4.1 11.8 -7.3Z M35.0 -32.2H40.1V0.0H35.0Z M58.2 -7.6V-24.6Q58.2 -28.4 60.2 -30.5Q62.1 -32.7 65.9 -32.7Q69.6 -32.7 71.6 -30.5Q73.6 -28.4 73.6 -24.6V-7.6Q73.6 -3.8 71.6 -1.7Q69.6 0.5 65.9 0.5Q62.1 0.5 60.2 -1.7Q58.2 -3.8 58.2 -7.6ZM68.5 -7.3V-24.9Q68.5 -28.1 65.9 -28.1Q63.2 -28.1 63.2 -24.9V-7.3Q63.2 -4.1 65.9 -4.1Q68.5 -4.1 68.5 -7.3Z M91.7 -32.2H98.0L102.9 -12.9H103.0V-32.2H107.5V0.0H102.3L96.3 -23.5H96.2V0.0H91.7Z M125.7 -7.6V-24.6Q125.7 -28.4 127.6 -30.5Q129.6 -32.7 133.4 -32.7Q137.1 -32.7 139.1 -30.5Q141.0 -28.4 141.0 -24.6V-7.6Q141.0 -3.8 139.1 -1.7Q137.1 0.5 133.4 0.5Q129.6 0.5 127.6 -1.7Q125.7 -3.8 125.7 -7.6ZM136.0 -7.3V-24.9Q136.0 -28.1 133.4 -28.1Q130.7 -28.1 130.7 -24.9V-7.3Q130.7 -4.1 133.4 -4.1Q136.0 -4.1 136.0 -7.3Z M158.3 -7.6V-9.5H163.1V-7.3Q163.1 -4.1 165.7 -4.1Q167.0 -4.1 167.6 -4.9Q168.3 -5.7 168.3 -7.4Q168.3 -9.4 167.4 -10.9Q166.5 -12.5 164.0 -14.6Q160.9 -17.4 159.6 -19.6Q158.4 -21.8 158.4 -24.7Q158.4 -28.5 160.3 -30.6Q162.2 -32.7 165.9 -32.7Q169.6 -32.7 171.4 -30.6Q173.3 -28.5 173.3 -24.6V-23.2H168.5V-24.9Q168.5 -26.5 167.9 -27.3Q167.2 -28.1 166.0 -28.1Q163.4 -28.1 163.4 -25.0Q163.4 -23.2 164.4 -21.7Q165.3 -20.2 167.8 -18.0Q171.0 -15.3 172.2 -13.0Q173.4 -10.8 173.4 -7.7Q173.4 -3.8 171.4 -1.7Q169.5 0.5 165.7 0.5Q162.1 0.5 160.2 -1.6Q158.3 -3.7 158.3 -7.6Z" fill="#EAF1FA"/></g><path class="b" style="animation-delay:.9s" transform="translate(133.80 330.00)" d="M0.65 0.00V-6.57H1.84L2.68 -3.73L3.55 -6.57H4.75V0.00H3.97V-3.10Q3.97 -3.55 3.98 -4.12Q4.00 -4.69 4.02 -5.27Q4.05 -5.86 4.09 -6.33L3.02 -2.93H2.32L1.30 -6.25Q1.38 -5.58 1.40 -4.79Q1.43 -4.00 1.43 -3.10V0.00Z M9.45 0.00 11.16 -6.57H12.25L13.95 0.00H13.13L12.70 -1.75H10.71L10.28 0.00ZM10.87 -2.43H12.53L12.02 -4.46Q11.88 -5.03 11.80 -5.42Q11.72 -5.80 11.70 -5.92Q11.68 -5.80 11.60 -5.42Q11.52 -5.03 11.38 -4.46Z M18.84 0.00V-6.57H20.86Q21.45 -6.57 21.89 -6.33Q22.33 -6.09 22.57 -5.67Q22.81 -5.25 22.81 -4.68Q22.81 -4.01 22.47 -3.54Q22.13 -3.06 21.56 -2.87L22.91 0.00H22.01L20.73 -2.79H19.64V0.00ZM19.64 -3.52H20.86Q21.37 -3.52 21.67 -3.84Q21.98 -4.16 21.98 -4.68Q21.98 -5.21 21.67 -5.53Q21.37 -5.84 20.86 -5.84H19.64Z M29.77 0.09Q28.87 0.09 28.35 -0.41Q27.83 -0.92 27.83 -1.80V-4.77Q27.83 -5.65 28.35 -6.16Q28.87 -6.66 29.77 -6.66Q30.65 -6.66 31.18 -6.15Q31.70 -5.64 31.70 -4.77H30.89Q30.89 -5.33 30.60 -5.63Q30.30 -5.93 29.77 -5.93Q29.24 -5.93 28.94 -5.63Q28.64 -5.33 28.64 -4.77V-1.80Q28.64 -1.24 28.94 -0.94Q29.24 -0.64 29.77 -0.64Q30.30 -0.64 30.60 -0.94Q30.89 -1.24 30.89 -1.80H31.70Q31.70 -0.93 31.18 -0.42Q30.65 0.09 29.77 0.09Z M45.84 0.00V-6.57H46.65V-3.76H48.75V-6.57H49.56V0.00H48.75V-3.02H46.65V0.00Z M54.90 0.00V-6.57H58.68V-5.83H55.70V-3.80H58.37V-3.08H55.70V-0.74H58.68V0.00Z M63.84 0.00V-6.57H65.86Q66.45 -6.57 66.89 -6.33Q67.33 -6.09 67.57 -5.67Q67.81 -5.25 67.81 -4.68Q67.81 -4.01 67.47 -3.54Q67.13 -3.06 66.56 -2.87L67.91 0.00H67.01L65.73 -2.79H64.64V0.00ZM64.64 -3.52H65.86Q66.37 -3.52 66.67 -3.84Q66.98 -4.16 66.98 -4.68Q66.98 -5.21 66.67 -5.53Q66.37 -5.84 65.86 -5.84H64.64Z M72.81 0.00V-6.57H73.89L75.90 -0.94Q75.88 -1.17 75.86 -1.50Q75.83 -1.83 75.82 -2.19Q75.81 -2.56 75.81 -2.88V-6.57H76.59V0.00H75.51L73.51 -5.62Q73.53 -5.41 73.55 -5.08Q73.57 -4.75 73.58 -4.39Q73.59 -4.02 73.59 -3.69V0.00Z M81.45 0.00 83.16 -6.57H84.25L85.95 0.00H85.13L84.70 -1.75H82.71L82.28 0.00ZM82.87 -2.43H84.53L84.02 -4.46Q83.88 -5.03 83.80 -5.42Q83.72 -5.80 83.70 -5.92Q83.68 -5.80 83.60 -5.42Q83.52 -5.03 83.38 -4.46Z M90.81 0.00V-6.57H91.89L93.90 -0.94Q93.88 -1.17 93.86 -1.50Q93.83 -1.83 93.82 -2.19Q93.81 -2.56 93.81 -2.88V-6.57H94.59V0.00H93.51L91.51 -5.62Q91.53 -5.41 91.55 -5.08Q91.57 -4.75 91.58 -4.39Q91.59 -4.02 91.59 -3.69V0.00Z M99.83 0.00V-6.57H101.53Q102.17 -6.57 102.63 -6.33Q103.09 -6.08 103.35 -5.64Q103.61 -5.20 103.61 -4.60V-1.98Q103.61 -1.38 103.35 -0.93Q103.09 -0.49 102.63 -0.24Q102.17 0.00 101.53 0.00ZM100.64 -0.72H101.53Q102.12 -0.72 102.46 -1.05Q102.80 -1.39 102.80 -1.98V-4.60Q102.80 -5.18 102.46 -5.52Q102.12 -5.85 101.53 -5.85H100.64Z M108.90 0.00V-6.57H112.68V-5.83H109.70V-3.80H112.36V-3.08H109.70V-0.74H112.68V0.00Z M117.77 0.00V-0.81L120.73 -5.83H117.81V-6.57H121.55V-5.76L118.58 -0.74H121.64V0.00Z" fill="#8FD3FF" opacity="1.0"/><path class="b" style="animation-delay:1.05s" transform="translate(135.00 348.00)" d="M2.43 0.08Q1.58 0.08 1.08 -0.37Q0.58 -0.82 0.58 -1.60H1.30Q1.30 -1.11 1.61 -0.84Q1.92 -0.56 2.43 -0.56Q2.93 -0.56 3.22 -0.85Q3.52 -1.14 3.52 -1.60Q3.52 -1.95 3.33 -2.21Q3.14 -2.47 2.79 -2.57L1.90 -2.82Q1.35 -2.98 1.04 -3.39Q0.72 -3.80 0.72 -4.36Q0.72 -4.82 0.93 -5.18Q1.14 -5.53 1.51 -5.72Q1.89 -5.92 2.38 -5.92Q2.87 -5.92 3.25 -5.72Q3.63 -5.53 3.85 -5.18Q4.06 -4.83 4.06 -4.38H3.34Q3.34 -4.78 3.07 -5.03Q2.80 -5.28 2.38 -5.28Q1.95 -5.28 1.69 -5.03Q1.42 -4.78 1.42 -4.38Q1.42 -4.06 1.60 -3.83Q1.77 -3.60 2.08 -3.51L2.99 -3.26Q3.58 -3.10 3.90 -2.65Q4.22 -2.21 4.22 -1.60Q4.22 -0.83 3.74 -0.38Q3.25 0.08 2.43 0.08Z M9.60 0.08Q8.82 0.08 8.36 -0.38Q7.90 -0.83 7.90 -1.68V-4.16Q7.90 -5.01 8.36 -5.46Q8.82 -5.92 9.60 -5.92Q10.38 -5.92 10.84 -5.46Q11.30 -5.01 11.30 -4.17V-1.68Q11.30 -0.83 10.84 -0.38Q10.38 0.08 9.60 0.08ZM9.60 -0.57Q10.07 -0.57 10.32 -0.84Q10.58 -1.10 10.58 -1.60V-4.24Q10.58 -4.74 10.32 -5.00Q10.07 -5.27 9.60 -5.27Q9.14 -5.27 8.88 -5.00Q8.62 -4.74 8.62 -4.24V-1.60Q8.62 -1.10 8.88 -0.84Q9.14 -0.57 9.60 -0.57Z M15.16 0.00V-5.84H18.60V-5.18H15.86V-3.25H18.39V-2.59H15.88V0.00Z M23.64 0.00V-5.18H22.04V-5.84H25.96V-5.18H24.36V0.00Z M29.66 0.00 28.96 -5.84H29.62L30.08 -1.52Q30.11 -1.26 30.13 -0.97Q30.14 -0.69 30.15 -0.52Q30.17 -0.69 30.20 -0.97Q30.22 -1.26 30.26 -1.52L30.83 -5.84H31.61L32.14 -1.52Q32.17 -1.26 32.20 -0.97Q32.23 -0.69 32.25 -0.52Q32.26 -0.69 32.28 -0.97Q32.30 -1.26 32.34 -1.52L32.81 -5.84H33.44L32.73 0.00H31.82L31.30 -4.40Q31.26 -4.67 31.25 -4.93Q31.23 -5.19 31.22 -5.34Q31.20 -5.19 31.18 -4.93Q31.17 -4.67 31.13 -4.40L30.56 0.00Z M36.40 0.00 37.92 -5.84H38.89L40.40 0.00H39.67L39.29 -1.55H37.52L37.14 0.00ZM37.66 -2.16H39.14L38.69 -3.96Q38.56 -4.47 38.49 -4.82Q38.42 -5.16 38.40 -5.26Q38.38 -5.16 38.31 -4.82Q38.24 -4.47 38.11 -3.97Z M43.94 0.00V-5.84H45.74Q46.26 -5.84 46.66 -5.63Q47.05 -5.42 47.26 -5.04Q47.48 -4.66 47.48 -4.16Q47.48 -3.57 47.18 -3.14Q46.87 -2.72 46.37 -2.55L47.56 0.00H46.77L45.62 -2.48H44.66V0.00ZM44.66 -3.13H45.74Q46.19 -3.13 46.46 -3.41Q46.74 -3.70 46.74 -4.16Q46.74 -4.63 46.46 -4.91Q46.19 -5.19 45.74 -5.19H44.66Z M51.20 0.00V-5.84H54.56V-5.18H51.91V-3.38H54.28V-2.74H51.91V-0.66H54.56V0.00Z M65.60 0.00V-5.84H68.96V-5.18H66.31V-3.38H68.68V-2.74H66.31V-0.66H68.96V0.00Z M72.72 0.00V-5.84H73.68L75.46 -0.84Q75.45 -1.04 75.43 -1.33Q75.41 -1.62 75.40 -1.95Q75.38 -2.27 75.38 -2.56V-5.84H76.08V0.00H75.12L73.34 -5.00Q73.36 -4.81 73.38 -4.52Q73.39 -4.22 73.40 -3.90Q73.42 -3.58 73.42 -3.28V0.00Z M81.63 0.08Q80.83 0.08 80.37 -0.37Q79.90 -0.82 79.90 -1.60V-4.24Q79.90 -5.02 80.37 -5.47Q80.83 -5.92 81.63 -5.92Q82.42 -5.92 82.88 -5.47Q83.34 -5.02 83.34 -4.24H82.62Q82.62 -4.74 82.36 -5.00Q82.10 -5.27 81.63 -5.27Q81.16 -5.27 80.89 -5.01Q80.62 -4.74 80.62 -4.25V-1.60Q80.62 -1.10 80.89 -0.83Q81.16 -0.56 81.63 -0.56Q82.10 -0.56 82.36 -0.83Q82.62 -1.10 82.62 -1.60V-2.40H81.44V-3.06H83.34V-1.60Q83.34 -0.82 82.88 -0.37Q82.42 0.08 81.63 0.08Z M87.24 0.00V-0.66H88.43V-5.18H87.24V-5.84H90.36V-5.18H89.17V-0.66H90.36V0.00Z M94.32 0.00V-5.84H95.28L97.06 -0.84Q97.05 -1.04 97.03 -1.33Q97.01 -1.62 97.00 -1.95Q96.98 -2.27 96.98 -2.56V-5.84H97.68V0.00H96.72L94.94 -5.00Q94.96 -4.81 94.98 -4.52Q94.99 -4.22 95.00 -3.90Q95.02 -3.58 95.02 -3.28V0.00Z M101.60 0.00V-5.84H104.96V-5.18H102.31V-3.38H104.68V-2.74H102.31V-0.66H104.96V0.00Z M108.80 0.00V-5.84H112.16V-5.18H109.51V-3.38H111.88V-2.74H109.51V-0.66H112.16V0.00Z M115.94 0.00V-5.84H117.74Q118.26 -5.84 118.66 -5.63Q119.05 -5.42 119.26 -5.04Q119.48 -4.66 119.48 -4.16Q119.48 -3.57 119.18 -3.14Q118.87 -2.72 118.37 -2.55L119.56 0.00H118.77L117.62 -2.48H116.66V0.00ZM116.66 -3.13H117.74Q118.19 -3.13 118.46 -3.41Q118.74 -3.70 118.74 -4.16Q118.74 -4.63 118.46 -4.91Q118.19 -5.19 117.74 -5.19H116.66Z" fill="#9AA7C2" opacity="1.0"/><path class="b" style="animation-delay:1.20s" transform="translate(46.65 378.00)" d="M2.2 -8.7V0.0H1.1V-8.7Z M10.6 0.1Q9.9 0.1 9.6 -0.1Q9.2 -0.3 9.0 -0.6Q8.8 -0.8 8.7 -1.0H8.5V0.0H7.5V-8.7H8.6V-5.5H8.7Q8.8 -5.7 9.0 -5.9Q9.2 -6.2 9.5 -6.4Q9.9 -6.6 10.6 -6.6Q11.4 -6.6 12.0 -6.2Q12.6 -5.8 13.0 -5.1Q13.3 -4.3 13.3 -3.3Q13.3 -2.2 13.0 -1.5Q12.6 -0.7 12.0 -0.3Q11.4 0.1 10.6 0.1ZM10.4 -0.8Q11.0 -0.8 11.4 -1.1Q11.8 -1.5 12.1 -2.0Q12.3 -2.6 12.3 -3.3Q12.3 -3.9 12.1 -4.5Q11.9 -5.0 11.4 -5.4Q11.0 -5.7 10.4 -5.7Q9.8 -5.7 9.4 -5.4Q9.0 -5.1 8.8 -4.5Q8.6 -4.0 8.6 -3.3Q8.6 -2.5 8.8 -2.0Q9.0 -1.4 9.4 -1.1Q9.8 -0.8 10.4 -0.8Z M17.1 0.1Q16.4 0.1 15.9 -0.2Q15.4 -0.5 15.1 -1.0Q14.9 -1.6 14.9 -2.4V-6.6H15.9V-2.5Q15.9 -1.7 16.3 -1.3Q16.7 -0.9 17.4 -0.9Q17.9 -0.9 18.2 -1.1Q18.6 -1.3 18.8 -1.7Q19.1 -2.1 19.1 -2.6V-6.6H20.1V0.0H19.1V-1.6H19.2Q18.9 -0.7 18.4 -0.3Q17.8 0.1 17.1 0.1Z M22.0 0.0V-6.6H23.0V0.0ZM22.5 -7.6Q22.2 -7.6 22.0 -7.8Q21.8 -8.0 21.8 -8.3Q21.8 -8.6 22.0 -8.8Q22.2 -9.0 22.5 -9.0Q22.8 -9.0 23.0 -8.8Q23.2 -8.6 23.2 -8.3Q23.2 -8.0 23.0 -7.8Q22.8 -7.6 22.5 -7.6Z M25.9 -8.7V0.0H24.9V-8.7Z M30.2 0.1Q29.4 0.1 28.8 -0.3Q28.2 -0.7 27.8 -1.5Q27.5 -2.2 27.5 -3.3Q27.5 -4.3 27.8 -5.1Q28.2 -5.8 28.8 -6.2Q29.4 -6.6 30.2 -6.6Q30.9 -6.6 31.3 -6.4Q31.6 -6.2 31.8 -5.9Q32.0 -5.7 32.1 -5.5H32.2V-8.7H33.3V0.0H32.3V-1.0H32.1Q32.0 -0.8 31.8 -0.6Q31.6 -0.3 31.2 -0.1Q30.9 0.1 30.2 0.1ZM30.4 -0.8Q31.0 -0.8 31.4 -1.1Q31.8 -1.4 32.0 -2.0Q32.2 -2.5 32.2 -3.3Q32.2 -4.0 32.0 -4.5Q31.8 -5.1 31.4 -5.4Q31.0 -5.7 30.4 -5.7Q29.8 -5.7 29.4 -5.4Q28.9 -5.0 28.7 -4.5Q28.5 -3.9 28.5 -3.3Q28.5 -2.6 28.7 -2.0Q29.0 -1.5 29.4 -1.1Q29.8 -0.8 30.4 -0.8Z M40.7 0.1Q40.1 0.1 39.5 -0.1Q39.0 -0.3 38.7 -0.6Q38.3 -1.0 38.2 -1.6L39.2 -1.8Q39.4 -1.3 39.7 -1.0Q40.1 -0.8 40.7 -0.8Q41.4 -0.8 41.8 -1.1Q42.2 -1.4 42.2 -1.8Q42.2 -2.1 42.0 -2.3Q41.7 -2.6 41.3 -2.7L40.2 -2.9Q39.3 -3.1 38.8 -3.6Q38.4 -4.0 38.4 -4.7Q38.4 -5.3 38.7 -5.7Q39.0 -6.1 39.6 -6.4Q40.1 -6.6 40.8 -6.6Q41.5 -6.6 42.0 -6.4Q42.5 -6.2 42.7 -5.9Q43.0 -5.5 43.2 -5.1L42.2 -4.8Q42.1 -5.2 41.8 -5.4Q41.5 -5.7 40.8 -5.7Q40.3 -5.7 39.9 -5.5Q39.5 -5.2 39.5 -4.8Q39.5 -4.4 39.7 -4.2Q40.0 -4.0 40.6 -3.8L41.6 -3.6Q42.5 -3.4 42.9 -3.0Q43.3 -2.5 43.3 -1.8Q43.3 -1.3 43.0 -0.8Q42.7 -0.4 42.1 -0.1Q41.5 0.1 40.7 0.1Z M44.7 2.4 45.0 1.5 45.1 1.5Q45.4 1.6 45.7 1.5Q46.0 1.5 46.2 1.3Q46.4 1.0 46.5 0.6L46.7 0.0L44.2 -6.6H45.4L46.8 -2.7Q47.0 -2.1 47.2 -1.5Q47.3 -0.9 47.5 -0.3H47.1Q47.3 -0.9 47.4 -1.5Q47.6 -2.1 47.8 -2.7L49.2 -6.6H50.3L47.5 1.0Q47.3 1.5 47.0 1.8Q46.7 2.2 46.3 2.3Q46.0 2.5 45.5 2.5Q45.2 2.5 45.0 2.5Q44.8 2.4 44.7 2.4Z M53.8 0.1Q53.1 0.1 52.6 -0.1Q52.1 -0.3 51.7 -0.6Q51.4 -1.0 51.3 -1.6L52.3 -1.8Q52.4 -1.3 52.8 -1.0Q53.2 -0.8 53.8 -0.8Q54.5 -0.8 54.9 -1.1Q55.3 -1.4 55.3 -1.8Q55.3 -2.1 55.1 -2.3Q54.8 -2.6 54.3 -2.7L53.2 -2.9Q52.4 -3.1 51.9 -3.6Q51.5 -4.0 51.5 -4.7Q51.5 -5.3 51.8 -5.7Q52.1 -6.1 52.7 -6.4Q53.2 -6.6 53.9 -6.6Q54.6 -6.6 55.1 -6.4Q55.5 -6.2 55.8 -5.9Q56.1 -5.5 56.3 -5.1L55.3 -4.8Q55.2 -5.2 54.9 -5.4Q54.6 -5.7 53.9 -5.7Q53.3 -5.7 52.9 -5.5Q52.6 -5.2 52.6 -4.8Q52.6 -4.4 52.8 -4.2Q53.1 -4.0 53.7 -3.8L54.6 -3.6Q55.5 -3.4 56.0 -3.0Q56.4 -2.5 56.4 -1.8Q56.4 -1.3 56.1 -0.8Q55.7 -0.4 55.2 -0.1Q54.6 0.1 53.8 0.1Z M60.5 -6.6V-5.6H57.1V-6.6ZM58.1 -8.1H59.1V-1.7Q59.1 -1.3 59.3 -1.1Q59.5 -0.9 59.9 -0.9Q60.0 -0.9 60.2 -0.9Q60.3 -0.9 60.5 -0.9L60.7 -0.0Q60.5 0.0 60.3 0.1Q60.1 0.1 59.9 0.1Q59.0 0.1 58.6 -0.4Q58.1 -0.8 58.1 -1.6Z M64.6 0.1Q63.6 0.1 63.0 -0.3Q62.3 -0.7 61.9 -1.5Q61.5 -2.2 61.5 -3.2Q61.5 -4.2 61.9 -5.0Q62.2 -5.8 62.9 -6.2Q63.6 -6.6 64.5 -6.6Q65.0 -6.6 65.5 -6.5Q66.0 -6.3 66.4 -5.9Q66.8 -5.5 67.1 -4.9Q67.3 -4.3 67.3 -3.4V-2.9H62.2V-3.8H66.8L66.3 -3.5Q66.3 -4.1 66.1 -4.6Q65.9 -5.1 65.5 -5.4Q65.1 -5.7 64.5 -5.7Q63.9 -5.7 63.5 -5.4Q63.0 -5.1 62.8 -4.6Q62.6 -4.2 62.6 -3.7V-3.1Q62.6 -2.3 62.8 -1.8Q63.1 -1.3 63.5 -1.1Q64.0 -0.8 64.6 -0.8Q65.0 -0.8 65.3 -0.9Q65.6 -1.0 65.8 -1.2Q66.1 -1.5 66.2 -1.8L67.2 -1.5Q67.1 -1.0 66.7 -0.7Q66.3 -0.3 65.8 -0.1Q65.3 0.1 64.6 0.1Z M68.8 0.0V-6.6H69.9L69.9 -5.1H69.8Q69.9 -5.6 70.2 -6.0Q70.5 -6.3 70.9 -6.5Q71.3 -6.7 71.7 -6.7Q72.4 -6.7 72.9 -6.2Q73.3 -5.8 73.4 -5.1H73.3Q73.4 -5.6 73.7 -5.9Q74.0 -6.3 74.5 -6.5Q74.9 -6.7 75.4 -6.7Q76.0 -6.7 76.5 -6.4Q76.9 -6.2 77.2 -5.7Q77.5 -5.2 77.5 -4.4V0.0H76.4V-4.4Q76.4 -5.1 76.0 -5.4Q75.6 -5.7 75.1 -5.7Q74.7 -5.7 74.4 -5.5Q74.0 -5.3 73.9 -5.0Q73.7 -4.7 73.7 -4.3V0.0H72.6V-4.5Q72.6 -5.0 72.3 -5.4Q71.9 -5.7 71.4 -5.7Q71.0 -5.7 70.6 -5.5Q70.3 -5.3 70.1 -5.0Q69.9 -4.6 69.9 -4.1V0.0Z M81.6 0.1Q80.9 0.1 80.4 -0.1Q79.9 -0.3 79.5 -0.6Q79.2 -1.0 79.1 -1.6L80.1 -1.8Q80.2 -1.3 80.6 -1.0Q81.0 -0.8 81.6 -0.8Q82.2 -0.8 82.7 -1.1Q83.1 -1.4 83.1 -1.8Q83.1 -2.1 82.8 -2.3Q82.6 -2.6 82.1 -2.7L81.0 -2.9Q80.1 -3.1 79.7 -3.6Q79.3 -4.0 79.3 -4.7Q79.3 -5.3 79.6 -5.7Q79.9 -6.1 80.4 -6.4Q81.0 -6.6 81.7 -6.6Q82.4 -6.6 82.8 -6.4Q83.3 -6.2 83.6 -5.9Q83.9 -5.5 84.0 -5.1L83.1 -4.8Q82.9 -5.2 82.6 -5.4Q82.3 -5.7 81.7 -5.7Q81.1 -5.7 80.7 -5.5Q80.3 -5.2 80.3 -4.8Q80.3 -4.4 80.6 -4.2Q80.8 -4.0 81.4 -3.8L82.4 -3.6Q83.3 -3.4 83.7 -3.0Q84.2 -2.5 84.2 -1.8Q84.2 -1.3 83.8 -0.8Q83.5 -0.4 82.9 -0.1Q82.3 0.1 81.6 0.1Z M91.6 -6.6V-5.6H88.2V-6.6ZM89.2 -8.1H90.3V-1.7Q90.3 -1.3 90.5 -1.1Q90.6 -0.9 91.1 -0.9Q91.2 -0.9 91.3 -0.9Q91.5 -0.9 91.6 -0.9L91.8 -0.0Q91.7 0.0 91.4 0.1Q91.2 0.1 91.0 0.1Q90.2 0.1 89.7 -0.4Q89.2 -0.8 89.2 -1.6Z M94.0 -3.9V0.0H93.0V-8.7H94.0V-5.0H93.9Q94.2 -5.9 94.7 -6.3Q95.3 -6.6 96.0 -6.6Q96.7 -6.6 97.2 -6.4Q97.7 -6.1 97.9 -5.5Q98.2 -5.0 98.2 -4.2V0.0H97.2V-4.1Q97.2 -4.8 96.8 -5.3Q96.4 -5.7 95.7 -5.7Q95.2 -5.7 94.8 -5.5Q94.5 -5.3 94.3 -4.9Q94.0 -4.5 94.0 -3.9Z M101.9 0.2Q101.3 0.2 100.8 -0.1Q100.3 -0.3 100.0 -0.8Q99.7 -1.2 99.7 -1.9Q99.7 -2.4 99.9 -2.8Q100.1 -3.1 100.5 -3.3Q100.9 -3.5 101.3 -3.6Q101.8 -3.7 102.2 -3.8Q102.8 -3.9 103.2 -3.9Q103.6 -3.9 103.7 -4.0Q103.9 -4.1 103.9 -4.4V-4.4Q103.9 -4.8 103.8 -5.1Q103.6 -5.4 103.3 -5.6Q103.0 -5.7 102.5 -5.7Q102.1 -5.7 101.7 -5.6Q101.4 -5.4 101.2 -5.2Q101.0 -5.0 100.9 -4.7L99.9 -5.1Q100.1 -5.7 100.5 -6.0Q101.0 -6.4 101.5 -6.5Q102.0 -6.6 102.5 -6.6Q102.8 -6.6 103.3 -6.6Q103.7 -6.5 104.1 -6.2Q104.5 -6.0 104.7 -5.5Q105.0 -5.1 105.0 -4.3V0.0H103.9V-0.9H103.9Q103.7 -0.7 103.5 -0.4Q103.3 -0.2 102.9 -0.0Q102.5 0.2 101.9 0.2ZM102.1 -0.8Q102.7 -0.8 103.1 -1.0Q103.5 -1.2 103.7 -1.6Q103.9 -2.0 103.9 -2.4V-3.3Q103.8 -3.2 103.6 -3.1Q103.4 -3.1 103.1 -3.0Q102.9 -3.0 102.6 -3.0Q102.3 -2.9 102.2 -2.9Q101.8 -2.9 101.5 -2.7Q101.1 -2.6 100.9 -2.4Q100.7 -2.2 100.7 -1.8Q100.7 -1.5 100.9 -1.2Q101.1 -1.0 101.4 -0.9Q101.7 -0.8 102.1 -0.8Z M109.4 -6.6V-5.6H106.0V-6.6ZM107.0 -8.1H108.0V-1.7Q108.0 -1.3 108.2 -1.1Q108.4 -0.9 108.8 -0.9Q108.9 -0.9 109.1 -0.9Q109.2 -0.9 109.4 -0.9L109.6 -0.0Q109.4 0.0 109.2 0.1Q109.0 0.1 108.8 0.1Q107.9 0.1 107.5 -0.4Q107.0 -0.8 107.0 -1.6Z M115.2 -3.9V0.0H114.1V-8.7H115.2V-5.0H115.0Q115.3 -5.9 115.8 -6.3Q116.4 -6.6 117.1 -6.6Q117.8 -6.6 118.3 -6.4Q118.8 -6.1 119.1 -5.5Q119.4 -5.0 119.4 -4.2V0.0H118.3V-4.1Q118.3 -4.8 117.9 -5.3Q117.5 -5.7 116.8 -5.7Q116.4 -5.7 116.0 -5.5Q115.6 -5.3 115.4 -4.9Q115.2 -4.5 115.2 -3.9Z M123.9 0.1Q123.0 0.1 122.3 -0.3Q121.6 -0.7 121.3 -1.5Q120.9 -2.2 120.9 -3.2Q120.9 -4.3 121.3 -5.0Q121.6 -5.8 122.3 -6.2Q123.0 -6.6 123.9 -6.6Q124.8 -6.6 125.4 -6.2Q126.1 -5.8 126.5 -5.0Q126.9 -4.3 126.9 -3.2Q126.9 -2.2 126.5 -1.5Q126.1 -0.7 125.4 -0.3Q124.8 0.1 123.9 0.1ZM123.9 -0.8Q124.5 -0.8 125.0 -1.1Q125.4 -1.5 125.6 -2.0Q125.8 -2.6 125.8 -3.2Q125.8 -3.9 125.6 -4.4Q125.4 -5.0 125.0 -5.3Q124.5 -5.7 123.9 -5.7Q123.2 -5.7 122.8 -5.3Q122.4 -5.0 122.2 -4.4Q122.0 -3.9 122.0 -3.2Q122.0 -2.6 122.2 -2.0Q122.4 -1.5 122.8 -1.1Q123.2 -0.8 123.9 -0.8Z M129.5 -8.7V0.0H128.4V-8.7Z M133.8 0.1Q133.0 0.1 132.3 -0.3Q131.7 -0.7 131.3 -1.5Q131.0 -2.2 131.0 -3.3Q131.0 -4.3 131.4 -5.1Q131.7 -5.8 132.3 -6.2Q133.0 -6.6 133.8 -6.6Q134.4 -6.6 134.8 -6.4Q135.2 -6.2 135.4 -5.9Q135.6 -5.7 135.7 -5.5H135.8V-8.7H136.8V0.0H135.8V-1.0H135.7Q135.6 -0.8 135.4 -0.6Q135.2 -0.3 134.8 -0.1Q134.4 0.1 133.8 0.1ZM133.9 -0.8Q134.5 -0.8 134.9 -1.1Q135.3 -1.4 135.6 -2.0Q135.8 -2.5 135.8 -3.3Q135.8 -4.0 135.6 -4.5Q135.4 -5.1 134.9 -5.4Q134.5 -5.7 133.9 -5.7Q133.3 -5.7 132.9 -5.4Q132.5 -5.0 132.3 -4.5Q132.1 -3.9 132.1 -3.3Q132.1 -2.6 132.3 -2.0Q132.5 -1.5 132.9 -1.1Q133.3 -0.8 133.9 -0.8Z M144.3 0.1Q143.6 0.1 143.1 -0.2Q142.6 -0.5 142.3 -1.0Q142.0 -1.6 142.0 -2.4V-6.6H143.1V-2.5Q143.1 -1.7 143.5 -1.3Q143.9 -0.9 144.6 -0.9Q145.0 -0.9 145.4 -1.1Q145.8 -1.3 146.0 -1.7Q146.2 -2.1 146.2 -2.6V-6.6H147.3V0.0H146.3V-1.6H146.4Q146.1 -0.7 145.5 -0.3Q145.0 0.1 144.3 0.1Z M150.2 -3.9V0.0H149.1V-6.6H150.1L150.2 -5.0H150.0Q150.3 -5.9 150.9 -6.3Q151.4 -6.6 152.2 -6.6Q152.8 -6.6 153.3 -6.4Q153.8 -6.1 154.1 -5.5Q154.4 -5.0 154.4 -4.2V0.0H153.3V-4.1Q153.3 -4.8 152.9 -5.3Q152.5 -5.7 151.8 -5.7Q151.4 -5.7 151.0 -5.5Q150.6 -5.3 150.4 -4.9Q150.2 -4.5 150.2 -3.9Z M158.7 0.1Q157.9 0.1 157.2 -0.3Q156.6 -0.7 156.3 -1.5Q155.9 -2.2 155.9 -3.3Q155.9 -4.3 156.3 -5.1Q156.6 -5.8 157.2 -6.2Q157.9 -6.6 158.7 -6.6Q159.3 -6.6 159.7 -6.4Q160.1 -6.2 160.3 -5.9Q160.5 -5.7 160.6 -5.5H160.7V-8.7H161.7V0.0H160.7V-1.0H160.6Q160.5 -0.8 160.3 -0.6Q160.1 -0.3 159.7 -0.1Q159.3 0.1 158.7 0.1ZM158.8 -0.8Q159.4 -0.8 159.8 -1.1Q160.3 -1.4 160.5 -2.0Q160.7 -2.5 160.7 -3.3Q160.7 -4.0 160.5 -4.5Q160.3 -5.1 159.8 -5.4Q159.4 -5.7 158.8 -5.7Q158.2 -5.7 157.8 -5.4Q157.4 -5.0 157.2 -4.5Q157.0 -3.9 157.0 -3.3Q157.0 -2.6 157.2 -2.0Q157.4 -1.5 157.8 -1.1Q158.2 -0.8 158.8 -0.8Z M166.3 0.1Q165.4 0.1 164.7 -0.3Q164.0 -0.7 163.6 -1.5Q163.3 -2.2 163.3 -3.2Q163.3 -4.2 163.6 -5.0Q164.0 -5.8 164.6 -6.2Q165.3 -6.6 166.2 -6.6Q166.7 -6.6 167.2 -6.5Q167.7 -6.3 168.1 -5.9Q168.6 -5.5 168.8 -4.9Q169.1 -4.3 169.1 -3.4V-2.9H164.0V-3.8H168.5L168.0 -3.5Q168.0 -4.1 167.8 -4.6Q167.6 -5.1 167.2 -5.4Q166.8 -5.7 166.2 -5.7Q165.6 -5.7 165.2 -5.4Q164.8 -5.1 164.5 -4.6Q164.3 -4.2 164.3 -3.7V-3.1Q164.3 -2.3 164.6 -1.8Q164.8 -1.3 165.3 -1.1Q165.7 -0.8 166.3 -0.8Q166.7 -0.8 167.0 -0.9Q167.3 -1.0 167.6 -1.2Q167.8 -1.5 167.9 -1.8L168.9 -1.5Q168.8 -1.0 168.4 -0.7Q168.1 -0.3 167.5 -0.1Q167.0 0.1 166.3 0.1Z M170.6 0.0V-6.6H171.6V-5.5H171.7Q171.8 -6.0 172.3 -6.3Q172.8 -6.6 173.4 -6.6Q173.5 -6.6 173.6 -6.6Q173.8 -6.6 173.9 -6.6V-5.6Q173.8 -5.6 173.7 -5.6Q173.5 -5.6 173.3 -5.6Q172.8 -5.6 172.4 -5.4Q172.0 -5.2 171.8 -4.9Q171.6 -4.5 171.6 -4.1V0.0Z M178.5 2.4V-6.6H179.5V-5.5H179.6Q179.7 -5.7 179.9 -5.9Q180.1 -6.2 180.5 -6.4Q180.9 -6.6 181.5 -6.6Q182.3 -6.6 182.9 -6.2Q183.6 -5.8 183.9 -5.1Q184.3 -4.3 184.3 -3.3Q184.3 -2.2 183.9 -1.5Q183.6 -0.7 182.9 -0.3Q182.3 0.1 181.5 0.1Q180.9 0.1 180.5 -0.1Q180.1 -0.3 179.9 -0.6Q179.7 -0.8 179.6 -1.0H179.5V2.4ZM181.3 -0.8Q182.0 -0.8 182.4 -1.1Q182.8 -1.5 183.0 -2.0Q183.2 -2.6 183.2 -3.3Q183.2 -3.9 183.0 -4.5Q182.8 -5.0 182.4 -5.4Q182.0 -5.7 181.3 -5.7Q180.7 -5.7 180.3 -5.4Q179.9 -5.1 179.7 -4.5Q179.5 -4.0 179.5 -3.3Q179.5 -2.5 179.7 -2.0Q179.9 -1.4 180.3 -1.1Q180.8 -0.8 181.3 -0.8Z M185.8 0.0V-6.6H186.8V-5.5H186.9Q187.1 -6.0 187.5 -6.3Q188.0 -6.6 188.6 -6.6Q188.7 -6.6 188.9 -6.6Q189.0 -6.6 189.1 -6.6V-5.6Q189.1 -5.6 188.9 -5.6Q188.7 -5.6 188.5 -5.6Q188.0 -5.6 187.7 -5.4Q187.3 -5.2 187.1 -4.9Q186.9 -4.5 186.9 -4.1V0.0Z M193.1 0.1Q192.1 0.1 191.4 -0.3Q190.8 -0.7 190.4 -1.5Q190.0 -2.2 190.0 -3.2Q190.0 -4.2 190.4 -5.0Q190.7 -5.8 191.4 -6.2Q192.1 -6.6 193.0 -6.6Q193.5 -6.6 194.0 -6.5Q194.5 -6.3 194.9 -5.9Q195.3 -5.5 195.6 -4.9Q195.8 -4.3 195.8 -3.4V-2.9H190.7V-3.8H195.2L194.7 -3.5Q194.7 -4.1 194.5 -4.6Q194.3 -5.1 193.9 -5.4Q193.5 -5.7 193.0 -5.7Q192.4 -5.7 191.9 -5.4Q191.5 -5.1 191.3 -4.6Q191.1 -4.2 191.1 -3.7V-3.1Q191.1 -2.3 191.3 -1.8Q191.6 -1.3 192.0 -1.1Q192.5 -0.8 193.1 -0.8Q193.5 -0.8 193.8 -0.9Q194.1 -1.0 194.3 -1.2Q194.6 -1.5 194.7 -1.8L195.7 -1.5Q195.6 -1.0 195.2 -0.7Q194.8 -0.3 194.3 -0.1Q193.8 0.1 193.1 0.1Z M199.5 0.1Q198.9 0.1 198.3 -0.1Q197.8 -0.3 197.5 -0.6Q197.1 -1.0 197.0 -1.6L198.0 -1.8Q198.2 -1.3 198.6 -1.0Q198.9 -0.8 199.5 -0.8Q200.2 -0.8 200.6 -1.1Q201.0 -1.4 201.0 -1.8Q201.0 -2.1 200.8 -2.3Q200.6 -2.6 200.1 -2.7L199.0 -2.9Q198.1 -3.1 197.7 -3.6Q197.2 -4.0 197.2 -4.7Q197.2 -5.3 197.5 -5.7Q197.9 -6.1 198.4 -6.4Q199.0 -6.6 199.7 -6.6Q200.3 -6.6 200.8 -6.4Q201.3 -6.2 201.6 -5.9Q201.9 -5.5 202.0 -5.1L201.1 -4.8Q200.9 -5.2 200.6 -5.4Q200.3 -5.7 199.7 -5.7Q199.1 -5.7 198.7 -5.5Q198.3 -5.2 198.3 -4.8Q198.3 -4.4 198.6 -4.2Q198.8 -4.0 199.4 -3.8L200.4 -3.6Q201.3 -3.4 201.7 -3.0Q202.1 -2.5 202.1 -1.8Q202.1 -1.3 201.8 -0.8Q201.5 -0.4 200.9 -0.1Q200.3 0.1 199.5 0.1Z M205.9 0.1Q205.2 0.1 204.7 -0.1Q204.2 -0.3 203.8 -0.6Q203.5 -1.0 203.4 -1.6L204.4 -1.8Q204.5 -1.3 204.9 -1.0Q205.3 -0.8 205.9 -0.8Q206.6 -0.8 207.0 -1.1Q207.4 -1.4 207.4 -1.8Q207.4 -2.1 207.1 -2.3Q206.9 -2.6 206.4 -2.7L205.3 -2.9Q204.4 -3.1 204.0 -3.6Q203.6 -4.0 203.6 -4.7Q203.6 -5.3 203.9 -5.7Q204.2 -6.1 204.7 -6.4Q205.3 -6.6 206.0 -6.6Q206.7 -6.6 207.1 -6.4Q207.6 -6.2 207.9 -5.9Q208.2 -5.5 208.3 -5.1L207.4 -4.8Q207.3 -5.2 206.9 -5.4Q206.6 -5.7 206.0 -5.7Q205.4 -5.7 205.0 -5.5Q204.6 -5.2 204.6 -4.8Q204.6 -4.4 204.9 -4.2Q205.2 -4.0 205.7 -3.8L206.7 -3.6Q207.6 -3.4 208.0 -3.0Q208.5 -2.5 208.5 -1.8Q208.5 -1.3 208.1 -0.8Q207.8 -0.4 207.2 -0.1Q206.6 0.1 205.9 0.1Z M212.2 0.1Q211.5 0.1 211.0 -0.2Q210.5 -0.5 210.3 -1.0Q210.0 -1.6 210.0 -2.4V-6.6H211.0V-2.5Q211.0 -1.7 211.4 -1.3Q211.8 -0.9 212.5 -0.9Q213.0 -0.9 213.4 -1.1Q213.7 -1.3 214.0 -1.7Q214.2 -2.1 214.2 -2.6V-6.6H215.2V0.0H214.2V-1.6H214.4Q214.0 -0.7 213.5 -0.3Q212.9 0.1 212.2 0.1Z M217.1 0.0V-6.6H218.1V-5.5H218.2Q218.4 -6.0 218.8 -6.3Q219.3 -6.6 219.9 -6.6Q220.0 -6.6 220.2 -6.6Q220.3 -6.6 220.4 -6.6V-5.6Q220.4 -5.6 220.2 -5.6Q220.0 -5.6 219.8 -5.6Q219.3 -5.6 218.9 -5.4Q218.6 -5.2 218.3 -4.9Q218.1 -4.5 218.1 -4.1V0.0Z M224.4 0.1Q223.4 0.1 222.7 -0.3Q222.0 -0.7 221.7 -1.5Q221.3 -2.2 221.3 -3.2Q221.3 -4.2 221.6 -5.0Q222.0 -5.8 222.7 -6.2Q223.3 -6.6 224.2 -6.6Q224.8 -6.6 225.3 -6.5Q225.8 -6.3 226.2 -5.9Q226.6 -5.5 226.8 -4.9Q227.1 -4.3 227.1 -3.4V-2.9H222.0V-3.8H226.5L226.0 -3.5Q226.0 -4.1 225.8 -4.6Q225.6 -5.1 225.2 -5.4Q224.8 -5.7 224.2 -5.7Q223.6 -5.7 223.2 -5.4Q222.8 -5.1 222.6 -4.6Q222.4 -4.2 222.4 -3.7V-3.1Q222.4 -2.3 222.6 -1.8Q222.9 -1.3 223.3 -1.1Q223.8 -0.8 224.4 -0.8Q224.7 -0.8 225.1 -0.9Q225.4 -1.0 225.6 -1.2Q225.8 -1.5 226.0 -1.8L227.0 -1.5Q226.8 -1.0 226.5 -0.7Q226.1 -0.3 225.6 -0.1Q225.0 0.1 224.4 0.1Z M235.7 -4.2V-3.2H231.9V-4.2Z M243.9 -6.6V-5.6H240.1V-6.6ZM241.3 0.0V-7.4Q241.3 -8.0 241.6 -8.4Q241.9 -8.8 242.3 -8.9Q242.7 -9.1 243.2 -9.1Q243.6 -9.1 243.8 -9.1Q244.1 -9.0 244.2 -9.0L243.9 -8.1Q243.8 -8.1 243.7 -8.1Q243.6 -8.2 243.3 -8.2Q242.8 -8.2 242.6 -7.9Q242.4 -7.7 242.4 -7.2V0.0Z M247.5 0.1Q246.9 0.1 246.4 -0.2Q245.9 -0.5 245.6 -1.0Q245.3 -1.6 245.3 -2.4V-6.6H246.4V-2.5Q246.4 -1.7 246.8 -1.3Q247.2 -0.9 247.8 -0.9Q248.3 -0.9 248.7 -1.1Q249.1 -1.3 249.3 -1.7Q249.5 -2.1 249.5 -2.6V-6.6H250.6V0.0H249.5V-1.6H249.7Q249.4 -0.7 248.8 -0.3Q248.2 0.1 247.5 0.1Z M253.5 -8.7V0.0H252.4V-8.7Z M256.4 -8.7V0.0H255.3V-8.7Z M262.0 -4.2V-3.2H258.1V-4.2Z M266.0 0.1Q265.3 0.1 264.8 -0.1Q264.2 -0.3 263.9 -0.6Q263.6 -1.0 263.4 -1.6L264.4 -1.8Q264.6 -1.3 265.0 -1.0Q265.4 -0.8 266.0 -0.8Q266.6 -0.8 267.0 -1.1Q267.5 -1.4 267.5 -1.8Q267.5 -2.1 267.2 -2.3Q267.0 -2.6 266.5 -2.7L265.4 -2.9Q264.5 -3.1 264.1 -3.6Q263.6 -4.0 263.6 -4.7Q263.6 -5.3 264.0 -5.7Q264.3 -6.1 264.8 -6.4Q265.4 -6.6 266.1 -6.6Q266.7 -6.6 267.2 -6.4Q267.7 -6.2 268.0 -5.9Q268.3 -5.5 268.4 -5.1L267.5 -4.8Q267.3 -5.2 267.0 -5.4Q266.7 -5.7 266.1 -5.7Q265.5 -5.7 265.1 -5.5Q264.7 -5.2 264.7 -4.8Q264.7 -4.4 265.0 -4.2Q265.2 -4.0 265.8 -3.8L266.8 -3.6Q267.7 -3.4 268.1 -3.0Q268.5 -2.5 268.5 -1.8Q268.5 -1.3 268.2 -0.8Q267.9 -0.4 267.3 -0.1Q266.7 0.1 266.0 0.1Z M272.6 -6.6V-5.6H269.3V-6.6ZM270.2 -8.1H271.3V-1.7Q271.3 -1.3 271.5 -1.1Q271.7 -0.9 272.1 -0.9Q272.2 -0.9 272.3 -0.9Q272.5 -0.9 272.6 -0.9L272.8 -0.0Q272.7 0.0 272.5 0.1Q272.2 0.1 272.0 0.1Q271.2 0.1 270.7 -0.4Q270.2 -0.8 270.2 -1.6Z M275.8 0.2Q275.2 0.2 274.7 -0.1Q274.2 -0.3 273.9 -0.8Q273.6 -1.2 273.6 -1.9Q273.6 -2.4 273.8 -2.8Q274.0 -3.1 274.4 -3.3Q274.8 -3.5 275.2 -3.6Q275.7 -3.7 276.1 -3.8Q276.7 -3.9 277.1 -3.9Q277.5 -3.9 277.6 -4.0Q277.8 -4.1 277.8 -4.4V-4.4Q277.8 -4.8 277.7 -5.1Q277.5 -5.4 277.2 -5.6Q276.9 -5.7 276.5 -5.7Q276.0 -5.7 275.7 -5.6Q275.3 -5.4 275.1 -5.2Q274.9 -5.0 274.8 -4.7L273.8 -5.1Q274.0 -5.7 274.5 -6.0Q274.9 -6.4 275.4 -6.5Q275.9 -6.6 276.4 -6.6Q276.8 -6.6 277.2 -6.6Q277.6 -6.5 278.0 -6.2Q278.4 -6.0 278.6 -5.5Q278.9 -5.1 278.9 -4.3V0.0H277.8V-0.9H277.8Q277.7 -0.7 277.4 -0.4Q277.2 -0.2 276.8 -0.0Q276.4 0.2 275.8 0.2ZM276.0 -0.8Q276.6 -0.8 277.0 -1.0Q277.4 -1.2 277.6 -1.6Q277.8 -2.0 277.8 -2.4V-3.3Q277.8 -3.2 277.5 -3.1Q277.3 -3.1 277.1 -3.0Q276.8 -3.0 276.5 -3.0Q276.3 -2.9 276.1 -2.9Q275.7 -2.9 275.4 -2.7Q275.1 -2.6 274.9 -2.4Q274.7 -2.2 274.7 -1.8Q274.7 -1.5 274.8 -1.2Q275.0 -1.0 275.3 -0.9Q275.6 -0.8 276.0 -0.8Z M283.4 0.1Q282.5 0.1 281.8 -0.3Q281.2 -0.7 280.8 -1.5Q280.4 -2.2 280.4 -3.2Q280.4 -4.3 280.8 -5.0Q281.2 -5.8 281.8 -6.2Q282.5 -6.6 283.4 -6.6Q283.9 -6.6 284.3 -6.5Q284.7 -6.4 285.1 -6.2Q285.4 -5.9 285.7 -5.6Q285.9 -5.2 286.1 -4.8L285.0 -4.5Q285.0 -4.8 284.8 -5.0Q284.7 -5.2 284.5 -5.4Q284.3 -5.5 284.0 -5.6Q283.7 -5.7 283.4 -5.7Q282.7 -5.7 282.3 -5.3Q281.9 -5.0 281.7 -4.4Q281.5 -3.9 281.5 -3.2Q281.5 -2.6 281.7 -2.0Q281.9 -1.5 282.3 -1.1Q282.7 -0.8 283.4 -0.8Q283.7 -0.8 284.0 -0.9Q284.3 -1.0 284.5 -1.1Q284.7 -1.3 284.9 -1.5Q285.0 -1.7 285.1 -2.0L286.1 -1.7Q285.9 -1.3 285.7 -0.9Q285.4 -0.6 285.1 -0.4Q284.7 -0.1 284.3 0.0Q283.9 0.1 283.4 0.1Z M288.6 -2.4V-3.7H288.8L291.6 -6.6H292.9L289.9 -3.4H289.7ZM287.6 0.0V-8.7H288.6V0.0ZM291.7 0.0 289.2 -3.2 290.0 -3.9 293.1 0.0Z M294.0 2.1 294.5 -1.2H295.7L294.8 2.1Z" fill="#9AA7C2" opacity="1.0"/><path class="b" style="animation-delay:1.30s" transform="translate(92.69 398.00)" d="M4.0 0.1Q3.3 0.1 3.0 -0.1Q2.6 -0.3 2.4 -0.6Q2.2 -0.8 2.1 -1.0H1.9V0.0H0.9V-8.7H2.0V-5.5H2.1Q2.2 -5.7 2.4 -5.9Q2.6 -6.2 2.9 -6.4Q3.3 -6.6 4.0 -6.6Q4.8 -6.6 5.4 -6.2Q6.0 -5.8 6.4 -5.1Q6.7 -4.3 6.7 -3.3Q6.7 -2.2 6.4 -1.5Q6.0 -0.7 5.4 -0.3Q4.8 0.1 4.0 0.1ZM3.8 -0.8Q4.4 -0.8 4.8 -1.1Q5.2 -1.5 5.5 -2.0Q5.7 -2.6 5.7 -3.3Q5.7 -3.9 5.5 -4.5Q5.3 -5.0 4.8 -5.4Q4.4 -5.7 3.8 -5.7Q3.2 -5.7 2.8 -5.4Q2.4 -5.1 2.2 -4.5Q2.0 -4.0 2.0 -3.3Q2.0 -2.5 2.2 -2.0Q2.4 -1.4 2.8 -1.1Q3.2 -0.8 3.8 -0.8Z M9.3 -8.7V0.0H8.3V-8.7Z M13.8 0.1Q13.0 0.1 12.3 -0.3Q11.6 -0.7 11.2 -1.5Q10.9 -2.2 10.9 -3.2Q10.9 -4.3 11.2 -5.0Q11.6 -5.8 12.3 -6.2Q13.0 -6.6 13.8 -6.6Q14.7 -6.6 15.4 -6.2Q16.1 -5.8 16.5 -5.0Q16.8 -4.3 16.8 -3.2Q16.8 -2.2 16.5 -1.5Q16.1 -0.7 15.4 -0.3Q14.7 0.1 13.8 0.1ZM13.8 -0.8Q14.5 -0.8 14.9 -1.1Q15.4 -1.5 15.6 -2.0Q15.8 -2.6 15.8 -3.2Q15.8 -3.9 15.6 -4.4Q15.4 -5.0 14.9 -5.3Q14.5 -5.7 13.8 -5.7Q13.2 -5.7 12.8 -5.3Q12.3 -5.0 12.1 -4.4Q11.9 -3.9 11.9 -3.2Q11.9 -2.6 12.1 -2.0Q12.3 -1.5 12.8 -1.1Q13.2 -0.8 13.8 -0.8Z M21.0 0.1Q20.2 0.1 19.5 -0.3Q18.8 -0.7 18.4 -1.5Q18.1 -2.2 18.1 -3.2Q18.1 -4.3 18.4 -5.0Q18.8 -5.8 19.5 -6.2Q20.2 -6.6 21.0 -6.6Q21.5 -6.6 21.9 -6.5Q22.4 -6.4 22.7 -6.2Q23.1 -5.9 23.3 -5.6Q23.6 -5.2 23.7 -4.8L22.7 -4.5Q22.6 -4.8 22.5 -5.0Q22.3 -5.2 22.1 -5.4Q21.9 -5.5 21.6 -5.6Q21.4 -5.7 21.0 -5.7Q20.4 -5.7 20.0 -5.3Q19.5 -5.0 19.3 -4.4Q19.1 -3.9 19.1 -3.2Q19.1 -2.6 19.3 -2.0Q19.5 -1.5 20.0 -1.1Q20.4 -0.8 21.0 -0.8Q21.4 -0.8 21.6 -0.9Q21.9 -1.0 22.1 -1.1Q22.3 -1.3 22.5 -1.5Q22.6 -1.7 22.7 -2.0L23.7 -1.7Q23.6 -1.3 23.3 -0.9Q23.1 -0.6 22.7 -0.4Q22.4 -0.1 21.9 0.0Q21.5 0.1 21.0 0.1Z M26.2 -2.4V-3.7H26.4L29.2 -6.6H30.5L27.5 -3.4H27.4ZM25.2 0.0V-8.7H26.3V0.0ZM29.4 0.0 26.9 -3.2 27.6 -3.9 30.7 0.0Z M34.5 0.1Q33.6 0.1 32.9 -0.3Q32.2 -0.7 31.9 -1.5Q31.5 -2.2 31.5 -3.2Q31.5 -4.3 31.9 -5.0Q32.2 -5.8 32.9 -6.2Q33.6 -6.6 34.5 -6.6Q35.0 -6.6 35.4 -6.5Q35.8 -6.4 36.1 -6.2Q36.5 -5.9 36.8 -5.6Q37.0 -5.2 37.1 -4.8L36.1 -4.5Q36.1 -4.8 35.9 -5.0Q35.8 -5.2 35.6 -5.4Q35.3 -5.5 35.1 -5.6Q34.8 -5.7 34.5 -5.7Q33.8 -5.7 33.4 -5.3Q33.0 -5.0 32.8 -4.4Q32.6 -3.9 32.6 -3.2Q32.6 -2.6 32.8 -2.0Q33.0 -1.5 33.4 -1.1Q33.8 -0.8 34.5 -0.8Q34.8 -0.8 35.1 -0.9Q35.4 -1.0 35.6 -1.1Q35.8 -1.3 35.9 -1.5Q36.1 -1.7 36.2 -2.0L37.2 -1.7Q37.0 -1.3 36.8 -0.9Q36.5 -0.6 36.2 -0.4Q35.8 -0.1 35.4 0.0Q35.0 0.1 34.5 0.1Z M39.7 -3.9V0.0H38.7V-8.7H39.7V-5.0H39.5Q39.8 -5.9 40.4 -6.3Q41.0 -6.6 41.7 -6.6Q42.4 -6.6 42.9 -6.4Q43.4 -6.1 43.6 -5.5Q43.9 -5.0 43.9 -4.2V0.0H42.9V-4.1Q42.9 -4.8 42.5 -5.3Q42.1 -5.7 41.4 -5.7Q40.9 -5.7 40.5 -5.5Q40.2 -5.3 39.9 -4.9Q39.7 -4.5 39.7 -3.9Z M47.6 0.2Q47.0 0.2 46.5 -0.1Q46.0 -0.3 45.7 -0.8Q45.4 -1.2 45.4 -1.9Q45.4 -2.4 45.6 -2.8Q45.8 -3.1 46.2 -3.3Q46.6 -3.5 47.0 -3.6Q47.5 -3.7 47.9 -3.8Q48.5 -3.9 48.9 -3.9Q49.2 -3.9 49.4 -4.0Q49.6 -4.1 49.6 -4.4V-4.4Q49.6 -4.8 49.4 -5.1Q49.3 -5.4 49.0 -5.6Q48.7 -5.7 48.2 -5.7Q47.8 -5.7 47.4 -5.6Q47.1 -5.4 46.9 -5.2Q46.7 -5.0 46.6 -4.7L45.6 -5.1Q45.8 -5.7 46.2 -6.0Q46.7 -6.4 47.2 -6.5Q47.7 -6.6 48.2 -6.6Q48.5 -6.6 48.9 -6.6Q49.4 -6.5 49.8 -6.2Q50.1 -6.0 50.4 -5.5Q50.7 -5.1 50.7 -4.3V0.0H49.6V-0.9H49.5Q49.4 -0.7 49.2 -0.4Q48.9 -0.2 48.6 -0.0Q48.2 0.2 47.6 0.2ZM47.8 -0.8Q48.4 -0.8 48.8 -1.0Q49.2 -1.2 49.4 -1.6Q49.6 -2.0 49.6 -2.4V-3.3Q49.5 -3.2 49.3 -3.1Q49.1 -3.1 48.8 -3.0Q48.5 -3.0 48.3 -3.0Q48.0 -2.9 47.9 -2.9Q47.5 -2.9 47.2 -2.7Q46.8 -2.6 46.6 -2.4Q46.4 -2.2 46.4 -1.8Q46.4 -1.5 46.6 -1.2Q46.8 -1.0 47.1 -0.9Q47.4 -0.8 47.8 -0.8Z M52.5 0.0V-6.6H53.6V0.0ZM53.0 -7.6Q52.7 -7.6 52.5 -7.8Q52.3 -8.0 52.3 -8.3Q52.3 -8.6 52.5 -8.8Q52.7 -9.0 53.0 -9.0Q53.3 -9.0 53.6 -8.8Q53.8 -8.6 53.8 -8.3Q53.8 -8.0 53.6 -7.8Q53.3 -7.6 53.0 -7.6Z M56.5 -3.9V0.0H55.4V-6.6H56.4L56.4 -5.0H56.3Q56.6 -5.9 57.1 -6.3Q57.7 -6.6 58.4 -6.6Q59.1 -6.6 59.6 -6.4Q60.1 -6.1 60.4 -5.5Q60.7 -5.0 60.7 -4.2V0.0H59.6V-4.1Q59.6 -4.8 59.2 -5.3Q58.8 -5.7 58.1 -5.7Q57.7 -5.7 57.3 -5.5Q56.9 -5.3 56.7 -4.9Q56.5 -4.5 56.5 -3.9Z M62.3 2.1 62.8 -1.2H64.0L63.1 2.1Z M71.2 0.2Q70.5 0.2 70.0 -0.1Q69.5 -0.3 69.2 -0.8Q68.9 -1.2 68.9 -1.9Q68.9 -2.4 69.2 -2.8Q69.4 -3.1 69.8 -3.3Q70.1 -3.5 70.6 -3.6Q71.0 -3.7 71.5 -3.8Q72.1 -3.9 72.4 -3.9Q72.8 -3.9 73.0 -4.0Q73.2 -4.1 73.2 -4.4V-4.4Q73.2 -4.8 73.0 -5.1Q72.9 -5.4 72.6 -5.6Q72.3 -5.7 71.8 -5.7Q71.3 -5.7 71.0 -5.6Q70.7 -5.4 70.5 -5.2Q70.2 -5.0 70.1 -4.7L69.1 -5.1Q69.4 -5.7 69.8 -6.0Q70.2 -6.4 70.7 -6.5Q71.3 -6.6 71.8 -6.6Q72.1 -6.6 72.5 -6.6Q72.9 -6.5 73.3 -6.2Q73.7 -6.0 74.0 -5.5Q74.2 -5.1 74.2 -4.3V0.0H73.2V-0.9H73.1Q73.0 -0.7 72.8 -0.4Q72.5 -0.2 72.1 -0.0Q71.7 0.2 71.2 0.2ZM71.3 -0.8Q71.9 -0.8 72.3 -1.0Q72.7 -1.2 73.0 -1.6Q73.2 -2.0 73.2 -2.4V-3.3Q73.1 -3.2 72.9 -3.1Q72.7 -3.1 72.4 -3.0Q72.1 -3.0 71.9 -3.0Q71.6 -2.9 71.4 -2.9Q71.1 -2.9 70.7 -2.7Q70.4 -2.6 70.2 -2.4Q70.0 -2.2 70.0 -1.8Q70.0 -1.5 70.2 -1.2Q70.3 -1.0 70.7 -0.9Q71.0 -0.8 71.3 -0.8Z M77.1 -3.9V0.0H76.1V-6.6H77.1L77.1 -5.0H76.9Q77.2 -5.9 77.8 -6.3Q78.4 -6.6 79.1 -6.6Q79.8 -6.6 80.3 -6.4Q80.8 -6.1 81.0 -5.5Q81.3 -5.0 81.3 -4.2V0.0H80.3V-4.1Q80.3 -4.8 79.9 -5.3Q79.5 -5.7 78.8 -5.7Q78.3 -5.7 77.9 -5.5Q77.6 -5.3 77.3 -4.9Q77.1 -4.5 77.1 -3.9Z M85.6 0.1Q84.8 0.1 84.2 -0.3Q83.5 -0.7 83.2 -1.5Q82.8 -2.2 82.8 -3.3Q82.8 -4.3 83.2 -5.1Q83.6 -5.8 84.2 -6.2Q84.8 -6.6 85.6 -6.6Q86.3 -6.6 86.6 -6.4Q87.0 -6.2 87.2 -5.9Q87.4 -5.7 87.5 -5.5H87.6V-8.7H88.7V0.0H87.6V-1.0H87.5Q87.4 -0.8 87.2 -0.6Q87.0 -0.3 86.6 -0.1Q86.2 0.1 85.6 0.1ZM85.8 -0.8Q86.4 -0.8 86.8 -1.1Q87.2 -1.4 87.4 -2.0Q87.6 -2.5 87.6 -3.3Q87.6 -4.0 87.4 -4.5Q87.2 -5.1 86.8 -5.4Q86.4 -5.7 85.8 -5.7Q85.2 -5.7 84.7 -5.4Q84.3 -5.0 84.1 -4.5Q83.9 -3.9 83.9 -3.3Q83.9 -2.6 84.1 -2.0Q84.3 -1.5 84.8 -1.1Q85.2 -0.8 85.8 -0.8Z M96.5 -6.6V-5.6H93.1V-6.6ZM94.1 -8.1H95.1V-1.7Q95.1 -1.3 95.3 -1.1Q95.5 -0.9 95.9 -0.9Q96.0 -0.9 96.1 -0.9Q96.3 -0.9 96.4 -0.9L96.6 -0.0Q96.5 0.0 96.3 0.1Q96.1 0.1 95.9 0.1Q95.0 0.1 94.5 -0.4Q94.1 -0.8 94.1 -1.6Z M98.9 -3.9V0.0H97.8V-8.7H98.9V-5.0H98.7Q99.0 -5.9 99.5 -6.3Q100.1 -6.6 100.8 -6.6Q101.5 -6.6 102.0 -6.4Q102.5 -6.1 102.8 -5.5Q103.1 -5.0 103.1 -4.2V0.0H102.0V-4.1Q102.0 -4.8 101.6 -5.3Q101.2 -5.7 100.5 -5.7Q100.0 -5.7 99.7 -5.5Q99.3 -5.3 99.1 -4.9Q98.9 -4.5 98.9 -3.9Z M107.7 0.1Q106.7 0.1 106.0 -0.3Q105.3 -0.7 105.0 -1.5Q104.6 -2.2 104.6 -3.2Q104.6 -4.2 105.0 -5.0Q105.3 -5.8 106.0 -6.2Q106.6 -6.6 107.5 -6.6Q108.1 -6.6 108.6 -6.5Q109.1 -6.3 109.5 -5.9Q109.9 -5.5 110.1 -4.9Q110.4 -4.3 110.4 -3.4V-2.9H105.3V-3.8H109.8L109.3 -3.5Q109.3 -4.1 109.1 -4.6Q108.9 -5.1 108.5 -5.4Q108.1 -5.7 107.5 -5.7Q106.9 -5.7 106.5 -5.4Q106.1 -5.1 105.9 -4.6Q105.7 -4.2 105.7 -3.7V-3.1Q105.7 -2.3 105.9 -1.8Q106.2 -1.3 106.6 -1.1Q107.1 -0.8 107.7 -0.8Q108.1 -0.8 108.4 -0.9Q108.7 -1.0 108.9 -1.2Q109.1 -1.5 109.3 -1.8L110.3 -1.5Q110.1 -1.0 109.8 -0.7Q109.4 -0.3 108.9 -0.1Q108.3 0.1 107.7 0.1Z M117.5 0.1Q116.8 0.1 116.3 -0.1Q115.8 -0.3 115.4 -0.6Q115.1 -1.0 115.0 -1.6L116.0 -1.8Q116.1 -1.3 116.5 -1.0Q116.9 -0.8 117.5 -0.8Q118.2 -0.8 118.6 -1.1Q119.0 -1.4 119.0 -1.8Q119.0 -2.1 118.8 -2.3Q118.5 -2.6 118.0 -2.7L116.9 -2.9Q116.1 -3.1 115.6 -3.6Q115.2 -4.0 115.2 -4.7Q115.2 -5.3 115.5 -5.7Q115.8 -6.1 116.4 -6.4Q116.9 -6.6 117.6 -6.6Q118.3 -6.6 118.8 -6.4Q119.2 -6.2 119.5 -5.9Q119.8 -5.5 120.0 -5.1L119.0 -4.8Q118.9 -5.2 118.6 -5.4Q118.2 -5.7 117.6 -5.7Q117.0 -5.7 116.6 -5.5Q116.2 -5.2 116.2 -4.8Q116.2 -4.4 116.5 -4.2Q116.8 -4.0 117.4 -3.8L118.3 -3.6Q119.2 -3.4 119.7 -3.0Q120.1 -2.5 120.1 -1.8Q120.1 -1.3 119.8 -0.8Q119.4 -0.4 118.9 -0.1Q118.3 0.1 117.5 0.1Z M121.6 2.4V-6.6H122.6V-5.5H122.7Q122.9 -5.7 123.1 -5.9Q123.3 -6.2 123.6 -6.4Q124.0 -6.6 124.6 -6.6Q125.5 -6.6 126.1 -6.2Q126.7 -5.8 127.1 -5.1Q127.4 -4.3 127.4 -3.3Q127.4 -2.2 127.1 -1.5Q126.7 -0.7 126.1 -0.3Q125.5 0.1 124.7 0.1Q124.0 0.1 123.7 -0.1Q123.3 -0.3 123.1 -0.6Q122.9 -0.8 122.7 -1.0H122.7V2.4ZM124.5 -0.8Q125.1 -0.8 125.5 -1.1Q125.9 -1.5 126.1 -2.0Q126.4 -2.6 126.4 -3.3Q126.4 -3.9 126.1 -4.5Q125.9 -5.0 125.5 -5.4Q125.1 -5.7 124.5 -5.7Q123.9 -5.7 123.5 -5.4Q123.1 -5.1 122.9 -4.5Q122.7 -4.0 122.7 -3.3Q122.7 -2.5 122.9 -2.0Q123.1 -1.4 123.5 -1.1Q123.9 -0.8 124.5 -0.8Z M130.8 0.2Q130.2 0.2 129.7 -0.1Q129.2 -0.3 128.9 -0.8Q128.6 -1.2 128.6 -1.9Q128.6 -2.4 128.8 -2.8Q129.0 -3.1 129.4 -3.3Q129.8 -3.5 130.2 -3.6Q130.7 -3.7 131.1 -3.8Q131.7 -3.9 132.1 -3.9Q132.4 -3.9 132.6 -4.0Q132.8 -4.1 132.8 -4.4V-4.4Q132.8 -4.8 132.6 -5.1Q132.5 -5.4 132.2 -5.6Q131.9 -5.7 131.4 -5.7Q131.0 -5.7 130.6 -5.6Q130.3 -5.4 130.1 -5.2Q129.9 -5.0 129.8 -4.7L128.7 -5.1Q129.0 -5.7 129.4 -6.0Q129.9 -6.4 130.4 -6.5Q130.9 -6.6 131.4 -6.6Q131.7 -6.6 132.1 -6.6Q132.6 -6.5 132.9 -6.2Q133.3 -6.0 133.6 -5.5Q133.8 -5.1 133.8 -4.3V0.0H132.8V-0.9H132.7Q132.6 -0.7 132.4 -0.4Q132.1 -0.2 131.7 -0.0Q131.3 0.2 130.8 0.2ZM131.0 -0.8Q131.6 -0.8 132.0 -1.0Q132.4 -1.2 132.6 -1.6Q132.8 -2.0 132.8 -2.4V-3.3Q132.7 -3.2 132.5 -3.1Q132.3 -3.1 132.0 -3.0Q131.7 -3.0 131.5 -3.0Q131.2 -2.9 131.1 -2.9Q130.7 -2.9 130.4 -2.7Q130.0 -2.6 129.8 -2.4Q129.6 -2.2 129.6 -1.8Q129.6 -1.5 129.8 -1.2Q130.0 -1.0 130.3 -0.9Q130.6 -0.8 131.0 -0.8Z M138.4 0.1Q137.5 0.1 136.8 -0.3Q136.1 -0.7 135.8 -1.5Q135.4 -2.2 135.4 -3.2Q135.4 -4.3 135.8 -5.0Q136.1 -5.8 136.8 -6.2Q137.5 -6.6 138.4 -6.6Q138.8 -6.6 139.3 -6.5Q139.7 -6.4 140.0 -6.2Q140.4 -5.9 140.6 -5.6Q140.9 -5.2 141.0 -4.8L140.0 -4.5Q139.9 -4.8 139.8 -5.0Q139.6 -5.2 139.4 -5.4Q139.2 -5.5 139.0 -5.6Q138.7 -5.7 138.4 -5.7Q137.7 -5.7 137.3 -5.3Q136.9 -5.0 136.7 -4.4Q136.5 -3.9 136.5 -3.2Q136.5 -2.6 136.7 -2.0Q136.9 -1.5 137.3 -1.1Q137.7 -0.8 138.4 -0.8Q138.7 -0.8 139.0 -0.9Q139.2 -1.0 139.5 -1.1Q139.7 -1.3 139.8 -1.5Q140.0 -1.7 140.0 -2.0L141.0 -1.7Q140.9 -1.3 140.7 -0.9Q140.4 -0.6 140.1 -0.4Q139.7 -0.1 139.3 0.0Q138.8 0.1 138.4 0.1Z M145.3 0.1Q144.4 0.1 143.7 -0.3Q143.0 -0.7 142.6 -1.5Q142.2 -2.2 142.2 -3.2Q142.2 -4.2 142.6 -5.0Q143.0 -5.8 143.6 -6.2Q144.3 -6.6 145.2 -6.6Q145.7 -6.6 146.2 -6.5Q146.7 -6.3 147.1 -5.9Q147.5 -5.5 147.8 -4.9Q148.0 -4.3 148.0 -3.4V-2.9H143.0V-3.8H147.5L147.0 -3.5Q147.0 -4.1 146.8 -4.6Q146.6 -5.1 146.2 -5.4Q145.8 -5.7 145.2 -5.7Q144.6 -5.7 144.2 -5.4Q143.7 -5.1 143.5 -4.6Q143.3 -4.2 143.3 -3.7V-3.1Q143.3 -2.3 143.6 -1.8Q143.8 -1.3 144.3 -1.1Q144.7 -0.8 145.3 -0.8Q145.7 -0.8 146.0 -0.9Q146.3 -1.0 146.6 -1.2Q146.8 -1.5 146.9 -1.8L147.9 -1.5Q147.8 -1.0 147.4 -0.7Q147.1 -0.3 146.5 -0.1Q146.0 0.1 145.3 0.1Z M156.0 0.1Q155.3 0.1 155.0 -0.1Q154.6 -0.3 154.4 -0.6Q154.2 -0.8 154.1 -1.0H153.9V0.0H152.9V-8.7H154.0V-5.5H154.1Q154.2 -5.7 154.4 -5.9Q154.6 -6.2 154.9 -6.4Q155.3 -6.6 156.0 -6.6Q156.8 -6.6 157.4 -6.2Q158.0 -5.8 158.4 -5.1Q158.7 -4.3 158.7 -3.3Q158.7 -2.2 158.4 -1.5Q158.0 -0.7 157.4 -0.3Q156.8 0.1 156.0 0.1ZM155.8 -0.8Q156.4 -0.8 156.8 -1.1Q157.2 -1.5 157.5 -2.0Q157.7 -2.6 157.7 -3.3Q157.7 -3.9 157.5 -4.5Q157.3 -5.0 156.8 -5.4Q156.4 -5.7 155.8 -5.7Q155.2 -5.7 154.8 -5.4Q154.4 -5.1 154.2 -4.5Q154.0 -4.0 154.0 -3.3Q154.0 -2.5 154.2 -2.0Q154.4 -1.4 154.8 -1.1Q155.2 -0.8 155.8 -0.8Z M163.0 0.1Q162.1 0.1 161.4 -0.3Q160.7 -0.7 160.3 -1.5Q160.0 -2.2 160.0 -3.2Q160.0 -4.2 160.3 -5.0Q160.7 -5.8 161.3 -6.2Q162.0 -6.6 162.9 -6.6Q163.4 -6.6 163.9 -6.5Q164.4 -6.3 164.9 -5.9Q165.3 -5.5 165.5 -4.9Q165.8 -4.3 165.8 -3.4V-2.9H160.7V-3.8H165.2L164.7 -3.5Q164.7 -4.1 164.5 -4.6Q164.3 -5.1 163.9 -5.4Q163.5 -5.7 162.9 -5.7Q162.3 -5.7 161.9 -5.4Q161.5 -5.1 161.2 -4.6Q161.0 -4.2 161.0 -3.7V-3.1Q161.0 -2.3 161.3 -1.8Q161.5 -1.3 162.0 -1.1Q162.4 -0.8 163.0 -0.8Q163.4 -0.8 163.7 -0.9Q164.1 -1.0 164.3 -1.2Q164.5 -1.5 164.6 -1.8L165.7 -1.5Q165.5 -1.0 165.1 -0.7Q164.8 -0.3 164.2 -0.1Q163.7 0.1 163.0 0.1Z M169.8 -6.6V-5.6H166.5V-6.6ZM167.4 -8.1H168.5V-1.7Q168.5 -1.3 168.7 -1.1Q168.9 -0.9 169.3 -0.9Q169.4 -0.9 169.5 -0.9Q169.7 -0.9 169.8 -0.9L170.0 -0.0Q169.9 0.0 169.7 0.1Q169.4 0.1 169.2 0.1Q168.4 0.1 167.9 -0.4Q167.4 -0.8 167.4 -1.6Z M172.7 0.0 170.7 -6.6H171.8L172.6 -3.7Q172.8 -3.1 172.9 -2.4Q173.1 -1.6 173.3 -0.7H173.1Q173.3 -1.6 173.5 -2.3Q173.7 -3.1 173.8 -3.7L174.6 -6.6H175.8L176.5 -3.7Q176.7 -3.1 176.9 -2.3Q177.0 -1.6 177.2 -0.7H177.0Q177.2 -1.6 177.4 -2.3Q177.6 -3.1 177.8 -3.7L178.6 -6.6H179.7L177.7 0.0H176.6L175.8 -3.0Q175.7 -3.4 175.5 -3.9Q175.4 -4.4 175.3 -4.8Q175.2 -5.3 175.1 -5.8H175.3Q175.2 -5.3 175.1 -4.8Q174.9 -4.4 174.8 -3.9Q174.7 -3.4 174.6 -3.0L173.7 0.0Z M183.8 0.1Q182.8 0.1 182.1 -0.3Q181.4 -0.7 181.1 -1.5Q180.7 -2.2 180.7 -3.2Q180.7 -4.2 181.1 -5.0Q181.4 -5.8 182.1 -6.2Q182.8 -6.6 183.6 -6.6Q184.2 -6.6 184.7 -6.5Q185.2 -6.3 185.6 -5.9Q186.0 -5.5 186.3 -4.9Q186.5 -4.3 186.5 -3.4V-2.9H181.4V-3.8H185.9L185.4 -3.5Q185.4 -4.1 185.2 -4.6Q185.0 -5.1 184.6 -5.4Q184.2 -5.7 183.6 -5.7Q183.1 -5.7 182.6 -5.4Q182.2 -5.1 182.0 -4.6Q181.8 -4.2 181.8 -3.7V-3.1Q181.8 -2.3 182.0 -1.8Q182.3 -1.3 182.7 -1.1Q183.2 -0.8 183.8 -0.8Q184.2 -0.8 184.5 -0.9Q184.8 -1.0 185.0 -1.2Q185.2 -1.5 185.4 -1.8L186.4 -1.5Q186.2 -1.0 185.9 -0.7Q185.5 -0.3 185.0 -0.1Q184.4 0.1 183.8 0.1Z M190.8 0.1Q189.8 0.1 189.1 -0.3Q188.4 -0.7 188.1 -1.5Q187.7 -2.2 187.7 -3.2Q187.7 -4.2 188.1 -5.0Q188.4 -5.8 189.1 -6.2Q189.8 -6.6 190.6 -6.6Q191.2 -6.6 191.7 -6.5Q192.2 -6.3 192.6 -5.9Q193.0 -5.5 193.2 -4.9Q193.5 -4.3 193.5 -3.4V-2.9H188.4V-3.8H192.9L192.4 -3.5Q192.4 -4.1 192.2 -4.6Q192.0 -5.1 191.6 -5.4Q191.2 -5.7 190.6 -5.7Q190.0 -5.7 189.6 -5.4Q189.2 -5.1 189.0 -4.6Q188.8 -4.2 188.8 -3.7V-3.1Q188.8 -2.3 189.0 -1.8Q189.3 -1.3 189.7 -1.1Q190.2 -0.8 190.8 -0.8Q191.2 -0.8 191.5 -0.9Q191.8 -1.0 192.0 -1.2Q192.2 -1.5 192.4 -1.8L193.4 -1.5Q193.2 -1.0 192.9 -0.7Q192.5 -0.3 192.0 -0.1Q191.4 0.1 190.8 0.1Z M196.1 -3.9V0.0H195.0V-6.6H196.0L196.0 -5.0H195.9Q196.2 -5.9 196.7 -6.3Q197.3 -6.6 198.0 -6.6Q198.7 -6.6 199.2 -6.4Q199.7 -6.1 200.0 -5.5Q200.2 -5.0 200.2 -4.2V0.0H199.2V-4.1Q199.2 -4.8 198.8 -5.3Q198.4 -5.7 197.7 -5.7Q197.2 -5.7 196.9 -5.5Q196.5 -5.3 196.3 -4.9Q196.1 -4.5 196.1 -3.9Z M202.9 0.1Q202.6 0.1 202.3 -0.2Q202.1 -0.4 202.1 -0.7Q202.1 -1.0 202.3 -1.3Q202.6 -1.5 202.9 -1.5Q203.2 -1.5 203.5 -1.3Q203.7 -1.0 203.7 -0.7Q203.7 -0.4 203.5 -0.2Q203.2 0.1 202.9 0.1Z" fill="#9AA7C2" opacity="1.0"/><path class="b" style="animation-delay:1.45s" transform="translate(105.10 424.00)" d="M2.40 0.08Q1.62 0.08 1.16 -0.38Q0.70 -0.83 0.70 -1.68V-4.16Q0.70 -5.01 1.16 -5.46Q1.62 -5.92 2.40 -5.92Q3.18 -5.92 3.64 -5.46Q4.10 -5.01 4.10 -4.17V-1.68Q4.10 -0.83 3.64 -0.38Q3.18 0.08 2.40 0.08ZM2.40 -0.57Q2.87 -0.57 3.12 -0.84Q3.38 -1.10 3.38 -1.60V-4.24Q3.38 -4.74 3.12 -5.00Q2.87 -5.27 2.40 -5.27Q1.94 -5.27 1.68 -5.00Q1.42 -4.74 1.42 -4.24V-1.60Q1.42 -1.10 1.68 -0.84Q1.94 -0.57 2.40 -0.57Z M7.74 0.00V-5.84H9.62Q10.43 -5.84 10.92 -5.37Q11.40 -4.90 11.40 -4.12Q11.40 -3.34 10.92 -2.87Q10.43 -2.40 9.62 -2.40H8.46V0.00ZM8.46 -3.05H9.62Q10.09 -3.05 10.37 -3.34Q10.66 -3.63 10.66 -4.12Q10.66 -4.62 10.37 -4.90Q10.09 -5.19 9.62 -5.19H8.46Z M14.80 0.00V-5.84H18.16V-5.18H15.51V-3.38H17.88V-2.74H15.51V-0.66H18.16V0.00Z M21.72 0.00V-5.84H22.68L24.46 -0.84Q24.45 -1.04 24.43 -1.33Q24.41 -1.62 24.40 -1.95Q24.38 -2.27 24.38 -2.56V-5.84H25.08V0.00H24.12L22.34 -5.00Q22.36 -4.81 22.38 -4.52Q22.39 -4.22 22.40 -3.90Q22.42 -3.58 22.42 -3.28V0.00Z M37.04 0.00V-5.18H35.44V-5.84H39.36V-5.18H37.76V0.00Z M44.40 0.08Q43.62 0.08 43.16 -0.38Q42.70 -0.83 42.70 -1.68V-4.16Q42.70 -5.01 43.16 -5.46Q43.62 -5.92 44.40 -5.92Q45.18 -5.92 45.64 -5.46Q46.10 -5.01 46.10 -4.17V-1.68Q46.10 -0.83 45.64 -0.38Q45.18 0.08 44.40 0.08ZM44.40 -0.57Q44.87 -0.57 45.12 -0.84Q45.38 -1.10 45.38 -1.60V-4.24Q45.38 -4.74 45.12 -5.00Q44.87 -5.27 44.40 -5.27Q43.94 -5.27 43.68 -5.00Q43.42 -4.74 43.42 -4.24V-1.60Q43.42 -1.10 43.68 -0.84Q43.94 -0.57 44.40 -0.57Z M56.86 0.00 56.16 -5.84H56.82L57.28 -1.52Q57.31 -1.26 57.33 -0.97Q57.34 -0.69 57.35 -0.52Q57.37 -0.69 57.40 -0.97Q57.42 -1.26 57.46 -1.52L58.03 -5.84H58.81L59.34 -1.52Q59.37 -1.26 59.40 -0.97Q59.43 -0.69 59.45 -0.52Q59.46 -0.69 59.48 -0.97Q59.50 -1.26 59.54 -1.52L60.01 -5.84H60.64L59.93 0.00H59.02L58.50 -4.40Q58.46 -4.67 58.45 -4.93Q58.43 -5.19 58.42 -5.34Q58.40 -5.19 58.38 -4.93Q58.37 -4.67 58.33 -4.40L57.76 0.00Z M65.40 0.08Q64.62 0.08 64.16 -0.38Q63.70 -0.83 63.70 -1.68V-4.16Q63.70 -5.01 64.16 -5.46Q64.62 -5.92 65.40 -5.92Q66.18 -5.92 66.64 -5.46Q67.10 -5.01 67.10 -4.17V-1.68Q67.10 -0.83 66.64 -0.38Q66.18 0.08 65.40 0.08ZM65.40 -0.57Q65.87 -0.57 66.12 -0.84Q66.38 -1.10 66.38 -1.60V-4.24Q66.38 -4.74 66.12 -5.00Q65.87 -5.27 65.40 -5.27Q64.94 -5.27 64.68 -5.00Q64.42 -4.74 64.42 -4.24V-1.60Q64.42 -1.10 64.68 -0.84Q64.94 -0.57 65.40 -0.57Z M70.74 0.00V-5.84H72.54Q73.06 -5.84 73.46 -5.63Q73.85 -5.42 74.06 -5.04Q74.28 -4.66 74.28 -4.16Q74.28 -3.57 73.98 -3.14Q73.67 -2.72 73.17 -2.55L74.36 0.00H73.57L72.42 -2.48H71.46V0.00ZM71.46 -3.13H72.54Q72.99 -3.13 73.26 -3.41Q73.54 -3.70 73.54 -4.16Q73.54 -4.63 73.26 -4.91Q72.99 -5.19 72.54 -5.19H71.46Z M77.74 0.00V-5.84H78.46V-3.33H79.32L80.62 -5.84H81.40L79.95 -3.02L81.48 0.00H80.66L79.30 -2.70H78.46V0.00Z M93.40 -2.08Q93.10 -2.08 92.92 -2.26Q92.74 -2.43 92.74 -2.71Q92.74 -3.01 92.92 -3.19Q93.10 -3.38 93.40 -3.38Q93.70 -3.38 93.88 -3.19Q94.06 -3.01 94.06 -2.71Q94.06 -2.43 93.88 -2.26Q93.70 -2.08 93.40 -2.08Z M105.74 0.00V-5.84H107.54Q108.06 -5.84 108.46 -5.63Q108.85 -5.42 109.06 -5.04Q109.28 -4.66 109.28 -4.16Q109.28 -3.57 108.98 -3.14Q108.67 -2.72 108.17 -2.55L109.36 0.00H108.57L107.42 -2.48H106.46V0.00ZM106.46 -3.13H107.54Q107.99 -3.13 108.26 -3.41Q108.54 -3.70 108.54 -4.16Q108.54 -4.63 108.26 -4.91Q107.99 -5.19 107.54 -5.19H106.46Z M112.80 0.00V-5.84H116.16V-5.18H113.51V-3.38H115.88V-2.74H113.51V-0.66H116.16V0.00Z M119.58 0.00V-5.84H120.64L121.38 -3.31L122.16 -5.84H123.22V0.00H122.53V-2.76Q122.53 -3.15 122.54 -3.66Q122.55 -4.17 122.58 -4.69Q122.60 -5.21 122.63 -5.62L121.69 -2.61H121.06L120.16 -5.55Q120.22 -4.96 120.25 -4.26Q120.27 -3.55 120.27 -2.76V0.00Z M128.40 0.08Q127.62 0.08 127.16 -0.38Q126.70 -0.83 126.70 -1.68V-4.16Q126.70 -5.01 127.16 -5.46Q127.62 -5.92 128.40 -5.92Q129.18 -5.92 129.64 -5.46Q130.10 -5.01 130.10 -4.17V-1.68Q130.10 -0.83 129.64 -0.38Q129.18 0.08 128.40 0.08ZM128.40 -0.57Q128.87 -0.57 129.12 -0.84Q129.38 -1.10 129.38 -1.60V-4.24Q129.38 -4.74 129.12 -5.00Q128.87 -5.27 128.40 -5.27Q127.94 -5.27 127.68 -5.00Q127.42 -4.74 127.42 -4.24V-1.60Q127.42 -1.10 127.68 -0.84Q127.94 -0.57 128.40 -0.57Z M135.04 0.00V-5.18H133.44V-5.84H137.36V-5.18H135.76V0.00Z M140.80 0.00V-5.84H144.16V-5.18H141.51V-3.38H143.88V-2.74H141.51V-0.66H144.16V0.00Z M154.60 0.88 157.44 -6.64H158.20L155.36 0.88Z M168.74 0.00V-5.84H170.62Q171.43 -5.84 171.92 -5.37Q172.40 -4.90 172.40 -4.12Q172.40 -3.34 171.92 -2.87Q171.43 -2.40 170.62 -2.40H169.46V0.00ZM169.46 -3.05H170.62Q171.09 -3.05 171.37 -3.34Q171.66 -3.63 171.66 -4.12Q171.66 -4.62 171.37 -4.90Q171.09 -5.19 170.62 -5.19H169.46Z M175.74 0.00V-5.84H176.46V-3.34H178.34V-5.84H179.06V0.00H178.34V-2.69H176.46V0.00Z" fill="#5B8FB8" opacity="1.0"/><path class="b" style="animation-delay:1.6s" transform="translate(40.25 574.00)" d="M2.25 0.07Q1.49 0.07 1.05 -0.36Q0.60 -0.80 0.60 -1.54V-3.94Q0.60 -4.67 1.05 -5.11Q1.49 -5.55 2.25 -5.55Q3.01 -5.55 3.45 -5.11Q3.90 -4.67 3.90 -3.94V-1.54Q3.90 -1.05 3.70 -0.69Q3.49 -0.32 3.12 -0.12Q2.75 0.07 2.25 0.07ZM2.25 -0.50Q2.70 -0.50 2.97 -0.79Q3.25 -1.08 3.25 -1.54V-3.94Q3.25 -4.39 2.97 -4.68Q2.70 -4.97 2.25 -4.97Q1.80 -4.97 1.53 -4.68Q1.25 -4.39 1.25 -3.94V-1.54Q1.25 -1.08 1.53 -0.79Q1.80 -0.50 2.25 -0.50ZM2.25 -2.32Q2.05 -2.32 1.92 -2.44Q1.80 -2.55 1.80 -2.76Q1.80 -2.96 1.92 -3.07Q2.05 -3.18 2.25 -3.18Q2.45 -3.18 2.58 -3.07Q2.70 -2.96 2.70 -2.76Q2.70 -2.55 2.58 -2.44Q2.45 -2.32 2.25 -2.32Z M6.77 0.00V-0.61H8.26V-4.89L6.77 -3.78V-4.55L8.01 -5.47H8.93V-0.61H10.15V0.00Z M19.10 0.00 18.45 -5.47H19.07L19.50 -1.43Q19.53 -1.18 19.54 -0.91Q19.56 -0.65 19.57 -0.49Q19.58 -0.65 19.61 -0.91Q19.63 -1.18 19.66 -1.43L20.20 -5.47H20.93L21.43 -1.43Q21.46 -1.18 21.49 -0.91Q21.52 -0.65 21.53 -0.49Q21.55 -0.65 21.57 -0.91Q21.58 -1.18 21.61 -1.43L22.06 -5.47H22.65L21.98 0.00H21.13L20.64 -4.12Q20.61 -4.38 20.59 -4.62Q20.58 -4.87 20.56 -5.00Q20.55 -4.87 20.53 -4.62Q20.52 -4.38 20.48 -4.12L19.95 0.00Z M24.77 0.00 26.20 -5.47H27.11L28.52 0.00H27.84L27.48 -1.45H25.82L25.46 0.00ZM25.96 -2.02H27.34L26.92 -3.71Q26.80 -4.19 26.73 -4.51Q26.66 -4.84 26.65 -4.93Q26.63 -4.84 26.57 -4.51Q26.50 -4.19 26.38 -3.72Z M32.41 0.00V-4.86H30.91V-5.47H34.59V-4.86H33.09V0.00Z M38.91 0.07Q38.16 0.07 37.73 -0.35Q37.29 -0.77 37.29 -1.50V-3.97Q37.29 -4.71 37.73 -5.13Q38.16 -5.55 38.91 -5.55Q39.65 -5.55 40.08 -5.13Q40.52 -4.70 40.52 -3.97H39.84Q39.84 -4.44 39.60 -4.69Q39.35 -4.94 38.91 -4.94Q38.47 -4.94 38.22 -4.69Q37.97 -4.44 37.97 -3.97V-1.50Q37.97 -1.03 38.22 -0.78Q38.47 -0.53 38.91 -0.53Q39.35 -0.53 39.60 -0.78Q39.84 -1.03 39.84 -1.50H40.52Q40.52 -0.77 40.08 -0.35Q39.65 0.07 38.91 0.07Z M43.40 0.00V-5.47H44.07V-3.13H45.83V-5.47H46.50V0.00H45.83V-2.52H44.07V0.00Z M49.55 0.00V-5.47H52.70V-4.86H50.22V-3.17H52.44V-2.56H50.22V-0.61H52.70V0.00Z M55.60 0.00V-5.47H57.29Q57.77 -5.47 58.14 -5.28Q58.51 -5.08 58.71 -4.72Q58.91 -4.37 58.91 -3.90Q58.91 -3.34 58.63 -2.95Q58.34 -2.55 57.87 -2.39L58.99 0.00H58.25L57.17 -2.32H56.27V0.00ZM56.27 -2.93H57.29Q57.71 -2.93 57.96 -3.20Q58.22 -3.46 58.22 -3.90Q58.22 -4.34 57.96 -4.61Q57.71 -4.87 57.29 -4.87H56.27Z M69.35 -1.95Q69.07 -1.95 68.90 -2.11Q68.74 -2.28 68.74 -2.54Q68.74 -2.82 68.90 -2.99Q69.07 -3.17 69.35 -3.17Q69.63 -3.17 69.80 -2.99Q69.97 -2.82 69.97 -2.54Q69.97 -2.28 69.80 -2.11Q69.63 -1.95 69.35 -1.95Z M81.55 0.07Q80.79 0.07 80.35 -0.36Q79.90 -0.80 79.90 -1.54V-3.94Q79.90 -4.67 80.35 -5.11Q80.79 -5.55 81.55 -5.55Q82.31 -5.55 82.75 -5.11Q83.20 -4.67 83.20 -3.94V-1.54Q83.20 -1.05 83.00 -0.69Q82.80 -0.32 82.42 -0.12Q82.05 0.07 81.55 0.07ZM81.55 -0.50Q82.00 -0.50 82.27 -0.79Q82.55 -1.08 82.55 -1.54V-3.94Q82.55 -4.39 82.27 -4.68Q82.00 -4.97 81.55 -4.97Q81.10 -4.97 80.83 -4.68Q80.55 -4.39 80.55 -3.94V-1.54Q80.55 -1.08 80.83 -0.79Q81.10 -0.50 81.55 -0.50ZM81.55 -2.32Q81.35 -2.32 81.22 -2.44Q81.10 -2.55 81.10 -2.76Q81.10 -2.96 81.22 -3.07Q81.35 -3.18 81.55 -3.18Q81.75 -3.18 81.88 -3.07Q82.00 -2.96 82.00 -2.76Q82.00 -2.55 81.88 -2.44Q81.75 -2.32 81.55 -2.32Z M86.04 0.00V-0.62L87.87 -2.57Q88.26 -2.99 88.43 -3.32Q88.59 -3.65 88.59 -3.97Q88.59 -4.42 88.34 -4.68Q88.08 -4.95 87.63 -4.95Q87.18 -4.95 86.91 -4.68Q86.64 -4.40 86.64 -3.94H85.97Q85.99 -4.68 86.44 -5.12Q86.89 -5.55 87.63 -5.55Q88.39 -5.55 88.84 -5.12Q89.28 -4.69 89.28 -3.96Q89.28 -3.57 89.07 -3.13Q88.86 -2.70 88.34 -2.16L86.86 -0.61H89.35V0.00Z M99.91 0.07Q99.16 0.07 98.72 -0.35Q98.29 -0.77 98.29 -1.50V-3.97Q98.29 -4.71 98.72 -5.13Q99.16 -5.55 99.91 -5.55Q100.64 -5.55 101.08 -5.13Q101.51 -4.70 101.51 -3.97H100.84Q100.84 -4.44 100.60 -4.69Q100.35 -4.94 99.91 -4.94Q99.47 -4.94 99.22 -4.69Q98.96 -4.44 98.96 -3.97V-1.50Q98.96 -1.03 99.22 -0.78Q99.47 -0.53 99.91 -0.53Q100.35 -0.53 100.60 -0.78Q100.84 -1.03 100.84 -1.50H101.51Q101.51 -0.77 101.08 -0.35Q100.64 0.07 99.91 0.07Z M104.49 0.00V-0.61H105.60V-4.86H104.49V-5.47H107.41V-4.86H106.29V-0.61H107.41V0.00Z M111.71 0.00V-4.86H110.21V-5.47H113.89V-4.86H112.39V0.00Z M117.81 0.00V-2.05L116.16 -5.47H116.88L117.95 -3.23Q118.04 -3.04 118.09 -2.91Q118.14 -2.77 118.16 -2.71Q118.17 -2.77 118.23 -2.91Q118.28 -3.04 118.37 -3.23L119.44 -5.47H120.14L118.49 -2.05V0.00Z M130.35 -1.95Q130.07 -1.95 129.90 -2.11Q129.73 -2.28 129.73 -2.54Q129.73 -2.82 129.90 -2.99Q130.07 -3.17 130.35 -3.17Q130.63 -3.17 130.80 -2.99Q130.96 -2.82 130.96 -2.54Q130.96 -2.28 130.80 -2.11Q130.63 -1.95 130.35 -1.95Z M142.55 0.07Q141.79 0.07 141.35 -0.36Q140.90 -0.80 140.90 -1.54V-3.94Q140.90 -4.67 141.35 -5.11Q141.79 -5.55 142.55 -5.55Q143.31 -5.55 143.75 -5.11Q144.20 -4.67 144.20 -3.94V-1.54Q144.20 -1.05 144.00 -0.69Q143.79 -0.32 143.42 -0.12Q143.05 0.07 142.55 0.07ZM142.55 -0.50Q143.00 -0.50 143.27 -0.79Q143.55 -1.08 143.55 -1.54V-3.94Q143.55 -4.39 143.27 -4.68Q143.00 -4.97 142.55 -4.97Q142.10 -4.97 141.83 -4.68Q141.55 -4.39 141.55 -3.94V-1.54Q141.55 -1.08 141.83 -0.79Q142.10 -0.50 142.55 -0.50ZM142.55 -2.32Q142.35 -2.32 142.22 -2.44Q142.10 -2.55 142.10 -2.76Q142.10 -2.96 142.22 -3.07Q142.35 -3.18 142.55 -3.18Q142.75 -3.18 142.88 -3.07Q143.00 -2.96 143.00 -2.76Q143.00 -2.55 142.88 -2.44Q142.75 -2.32 142.55 -2.32Z M148.57 0.07Q147.81 0.07 147.37 -0.35Q146.92 -0.77 146.92 -1.50H147.60Q147.60 -1.05 147.86 -0.79Q148.12 -0.53 148.57 -0.53Q149.02 -0.53 149.29 -0.79Q149.55 -1.05 149.55 -1.50V-1.88Q149.55 -2.32 149.29 -2.59Q149.02 -2.85 148.57 -2.85H147.98V-3.44L149.32 -4.86H147.07V-5.47H150.09V-4.84L148.77 -3.44Q149.44 -3.39 149.83 -2.97Q150.22 -2.56 150.22 -1.88V-1.50Q150.22 -0.77 149.78 -0.35Q149.33 0.07 148.57 0.07Z M159.30 0.00V-5.47H160.98Q161.47 -5.47 161.84 -5.28Q162.21 -5.08 162.41 -4.72Q162.61 -4.37 162.61 -3.90Q162.61 -3.34 162.33 -2.95Q162.04 -2.55 161.57 -2.39L162.69 0.00H161.94L160.87 -2.32H159.96V0.00ZM159.96 -2.93H160.98Q161.40 -2.93 161.66 -3.20Q161.91 -3.46 161.91 -3.90Q161.91 -4.34 161.66 -4.61Q161.40 -4.87 160.98 -4.87H159.96Z M165.45 0.00V-5.47H168.60V-4.86H166.12V-3.17H168.34V-2.56H166.12V-0.61H168.60V0.00Z M173.11 0.07Q172.36 0.07 171.92 -0.35Q171.49 -0.77 171.49 -1.50V-3.97Q171.49 -4.71 171.92 -5.13Q172.36 -5.55 173.11 -5.55Q173.84 -5.55 174.28 -5.13Q174.71 -4.70 174.71 -3.97H174.04Q174.04 -4.44 173.80 -4.69Q173.55 -4.94 173.11 -4.94Q172.67 -4.94 172.42 -4.69Q172.16 -4.44 172.16 -3.97V-1.50Q172.16 -1.03 172.42 -0.78Q172.67 -0.53 173.11 -0.53Q173.55 -0.53 173.80 -0.78Q174.04 -1.03 174.04 -1.50H174.71Q174.71 -0.77 174.28 -0.35Q173.84 0.07 173.11 0.07Z M179.15 0.07Q178.41 0.07 177.99 -0.35Q177.56 -0.78 177.56 -1.57V-3.90Q177.56 -4.69 177.99 -5.12Q178.41 -5.55 179.15 -5.55Q179.88 -5.55 180.31 -5.12Q180.74 -4.69 180.74 -3.91V-1.57Q180.74 -0.78 180.31 -0.35Q179.88 0.07 179.15 0.07ZM179.15 -0.53Q179.59 -0.53 179.83 -0.78Q180.06 -1.03 180.06 -1.50V-3.97Q180.06 -4.44 179.83 -4.69Q179.59 -4.94 179.15 -4.94Q178.71 -4.94 178.47 -4.69Q178.23 -4.44 178.23 -3.97V-1.50Q178.23 -1.03 178.47 -0.78Q178.71 -0.53 179.15 -0.53Z M183.70 0.00V-5.47H185.38Q185.87 -5.47 186.24 -5.28Q186.61 -5.08 186.81 -4.72Q187.01 -4.37 187.01 -3.90Q187.01 -3.34 186.73 -2.95Q186.44 -2.55 185.97 -2.39L187.09 0.00H186.34L185.27 -2.32H184.36V0.00ZM184.36 -2.93H185.38Q185.80 -2.93 186.06 -3.20Q186.31 -3.46 186.31 -3.90Q186.31 -4.34 186.06 -4.61Q185.80 -4.87 185.38 -4.87H184.36Z M189.79 0.00V-5.47H191.21Q191.74 -5.47 192.13 -5.27Q192.51 -5.07 192.73 -4.70Q192.94 -4.33 192.94 -3.83V-1.65Q192.94 -1.15 192.73 -0.78Q192.51 -0.40 192.13 -0.20Q191.74 0.00 191.21 0.00ZM190.46 -0.60H191.21Q191.70 -0.60 191.98 -0.88Q192.26 -1.16 192.26 -1.65V-3.83Q192.26 -4.32 191.98 -4.60Q191.70 -4.88 191.21 -4.88H190.46Z M197.48 0.07Q196.68 0.07 196.21 -0.35Q195.74 -0.77 195.74 -1.50H196.41Q196.41 -1.04 196.71 -0.78Q197.00 -0.53 197.48 -0.53Q197.94 -0.53 198.22 -0.79Q198.50 -1.06 198.50 -1.50Q198.50 -1.83 198.32 -2.07Q198.15 -2.32 197.82 -2.41L196.98 -2.64Q196.47 -2.79 196.17 -3.18Q195.87 -3.56 195.87 -4.09Q195.87 -4.52 196.07 -4.85Q196.26 -5.18 196.62 -5.37Q196.97 -5.55 197.43 -5.55Q197.89 -5.55 198.25 -5.37Q198.60 -5.18 198.81 -4.86Q199.01 -4.53 199.01 -4.10H198.33Q198.33 -4.48 198.08 -4.71Q197.82 -4.95 197.43 -4.95Q197.03 -4.95 196.78 -4.71Q196.53 -4.48 196.53 -4.10Q196.53 -3.80 196.70 -3.59Q196.86 -3.38 197.15 -3.29L198.00 -3.05Q198.55 -2.90 198.86 -2.49Q199.16 -2.07 199.16 -1.50Q199.16 -0.78 198.70 -0.35Q198.24 0.07 197.48 0.07Z M209.65 -1.95Q209.37 -1.95 209.20 -2.11Q209.03 -2.28 209.03 -2.54Q209.03 -2.82 209.20 -2.99Q209.37 -3.17 209.65 -3.17Q209.93 -3.17 210.10 -2.99Q210.26 -2.82 210.26 -2.54Q210.26 -2.28 210.10 -2.11Q209.93 -1.95 209.65 -1.95Z M221.85 0.07Q221.09 0.07 220.65 -0.36Q220.20 -0.80 220.20 -1.54V-3.94Q220.20 -4.67 220.65 -5.11Q221.09 -5.55 221.85 -5.55Q222.61 -5.55 223.05 -5.11Q223.50 -4.67 223.50 -3.94V-1.54Q223.50 -1.05 223.30 -0.69Q223.09 -0.32 222.72 -0.12Q222.35 0.07 221.85 0.07ZM221.85 -0.50Q222.30 -0.50 222.57 -0.79Q222.85 -1.08 222.85 -1.54V-3.94Q222.85 -4.39 222.57 -4.68Q222.30 -4.97 221.85 -4.97Q221.40 -4.97 221.13 -4.68Q220.85 -4.39 220.85 -3.94V-1.54Q220.85 -1.08 221.13 -0.79Q221.40 -0.50 221.85 -0.50ZM221.85 -2.32Q221.65 -2.32 221.52 -2.44Q221.40 -2.55 221.40 -2.76Q221.40 -2.96 221.52 -3.07Q221.65 -3.18 221.85 -3.18Q222.05 -3.18 222.18 -3.07Q222.30 -2.96 222.30 -2.76Q222.30 -2.55 222.18 -2.44Q222.05 -2.32 221.85 -2.32Z M228.70 0.00V-1.20H226.22V-2.26L228.22 -5.47H228.98L226.90 -2.11V-1.81H228.70V-3.15H229.37V0.00Z M239.81 0.00V-4.86H238.31V-5.47H241.99V-4.86H240.49V0.00Z M244.70 0.00V-5.47H246.38Q246.87 -5.47 247.24 -5.28Q247.61 -5.08 247.81 -4.72Q248.01 -4.37 248.01 -3.90Q248.01 -3.34 247.73 -2.95Q247.44 -2.55 246.97 -2.39L248.09 0.00H247.34L246.27 -2.32H245.36V0.00ZM245.36 -2.93H246.38Q246.80 -2.93 247.06 -3.20Q247.31 -3.46 247.31 -3.90Q247.31 -4.34 247.06 -4.61Q246.80 -4.87 246.38 -4.87H245.36Z M250.47 0.00 251.90 -5.47H252.81L254.22 0.00H253.54L253.18 -1.45H251.52L251.16 0.00ZM251.66 -2.02H253.04L252.62 -3.71Q252.50 -4.19 252.43 -4.51Q252.36 -4.84 252.35 -4.93Q252.33 -4.84 252.27 -4.51Q252.20 -4.19 252.08 -3.72Z M256.87 0.00V-5.47H257.77L259.45 -0.79Q259.43 -0.97 259.41 -1.25Q259.39 -1.52 259.38 -1.83Q259.37 -2.13 259.37 -2.40V-5.47H260.02V0.00H259.12L257.46 -4.69Q257.47 -4.51 257.49 -4.23Q257.50 -3.96 257.52 -3.66Q257.53 -3.35 257.53 -3.07V0.00Z M264.58 0.07Q263.78 0.07 263.31 -0.35Q262.84 -0.77 262.84 -1.50H263.51Q263.51 -1.04 263.81 -0.78Q264.10 -0.53 264.58 -0.53Q265.04 -0.53 265.32 -0.79Q265.60 -1.06 265.60 -1.50Q265.60 -1.83 265.42 -2.07Q265.25 -2.32 264.92 -2.41L264.08 -2.64Q263.57 -2.79 263.27 -3.18Q262.97 -3.56 262.97 -4.09Q262.97 -4.52 263.17 -4.85Q263.36 -5.18 263.72 -5.37Q264.07 -5.55 264.53 -5.55Q264.99 -5.55 265.35 -5.37Q265.70 -5.18 265.91 -4.86Q266.11 -4.53 266.11 -4.10H265.43Q265.43 -4.48 265.18 -4.71Q264.92 -4.95 264.53 -4.95Q264.13 -4.95 263.88 -4.71Q263.63 -4.48 263.63 -4.10Q263.63 -3.80 263.80 -3.59Q263.96 -3.38 264.25 -3.29L265.10 -3.05Q265.65 -2.90 265.96 -2.49Q266.26 -2.07 266.26 -1.50Q266.26 -0.78 265.80 -0.35Q265.34 0.07 264.58 0.07Z M268.94 0.00V-5.47H269.94L270.63 -3.10L271.36 -5.47H272.36V0.00H271.71V-2.59Q271.71 -2.96 271.72 -3.43Q271.73 -3.91 271.75 -4.39Q271.77 -4.88 271.80 -5.27L270.92 -2.44H270.33L269.49 -5.21Q269.55 -4.65 269.57 -3.99Q269.59 -3.33 269.59 -2.59V0.00Z M275.29 0.00V-0.61H276.40V-4.86H275.29V-5.47H278.21V-4.86H277.09V-0.61H278.21V0.00Z M282.88 0.07Q282.08 0.07 281.61 -0.35Q281.14 -0.77 281.14 -1.50H281.81Q281.81 -1.04 282.11 -0.78Q282.40 -0.53 282.88 -0.53Q283.34 -0.53 283.62 -0.79Q283.90 -1.06 283.90 -1.50Q283.90 -1.83 283.72 -2.07Q283.55 -2.32 283.22 -2.41L282.38 -2.64Q281.87 -2.79 281.57 -3.18Q281.27 -3.56 281.27 -4.09Q281.27 -4.52 281.47 -4.85Q281.66 -5.18 282.02 -5.37Q282.37 -5.55 282.83 -5.55Q283.29 -5.55 283.65 -5.37Q284.00 -5.18 284.21 -4.86Q284.41 -4.53 284.41 -4.10H283.73Q283.73 -4.48 283.48 -4.71Q283.22 -4.95 282.83 -4.95Q282.43 -4.95 282.18 -4.71Q281.93 -4.48 281.93 -4.10Q281.93 -3.80 282.10 -3.59Q282.26 -3.38 282.55 -3.29L283.40 -3.05Q283.95 -2.90 284.26 -2.49Q284.56 -2.07 284.56 -1.50Q284.56 -0.78 284.10 -0.35Q283.64 0.07 282.88 0.07Z M288.98 0.07Q288.19 0.07 287.71 -0.35Q287.24 -0.77 287.24 -1.50H287.91Q287.91 -1.04 288.21 -0.78Q288.50 -0.53 288.98 -0.53Q289.44 -0.53 289.72 -0.79Q290.00 -1.06 290.00 -1.50Q290.00 -1.83 289.82 -2.07Q289.65 -2.32 289.32 -2.41L288.49 -2.64Q287.97 -2.79 287.67 -3.18Q287.38 -3.56 287.38 -4.09Q287.38 -4.52 287.57 -4.85Q287.76 -5.18 288.12 -5.37Q288.47 -5.55 288.93 -5.55Q289.39 -5.55 289.75 -5.37Q290.10 -5.18 290.31 -4.86Q290.51 -4.53 290.51 -4.10H289.83Q289.83 -4.48 289.58 -4.71Q289.32 -4.95 288.93 -4.95Q288.53 -4.95 288.28 -4.71Q288.03 -4.48 288.03 -4.10Q288.03 -3.80 288.20 -3.59Q288.36 -3.38 288.65 -3.29L289.50 -3.05Q290.05 -2.90 290.36 -2.49Q290.66 -2.07 290.66 -1.50Q290.66 -0.78 290.20 -0.35Q289.75 0.07 288.98 0.07Z M293.59 0.00V-0.61H294.70V-4.86H293.59V-5.47H296.51V-4.86H295.40V-0.61H296.51V0.00Z M301.15 0.07Q300.42 0.07 299.99 -0.35Q299.56 -0.78 299.56 -1.57V-3.90Q299.56 -4.69 299.99 -5.12Q300.42 -5.55 301.15 -5.55Q301.89 -5.55 302.31 -5.12Q302.74 -4.69 302.74 -3.91V-1.57Q302.74 -0.78 302.31 -0.35Q301.89 0.07 301.15 0.07ZM301.15 -0.53Q301.59 -0.53 301.83 -0.78Q302.07 -1.03 302.07 -1.50V-3.97Q302.07 -4.44 301.83 -4.69Q301.59 -4.94 301.15 -4.94Q300.72 -4.94 300.48 -4.69Q300.24 -4.44 300.24 -3.97V-1.50Q300.24 -1.03 300.48 -0.78Q300.72 -0.53 301.15 -0.53Z M305.68 0.00V-5.47H306.58L308.25 -0.79Q308.23 -0.97 308.21 -1.25Q308.20 -1.52 308.18 -1.83Q308.17 -2.13 308.17 -2.40V-5.47H308.83V0.00H307.93L306.26 -4.69Q306.28 -4.51 306.29 -4.23Q306.31 -3.96 306.32 -3.66Q306.33 -3.35 306.33 -3.07V0.00Z" fill="#7282A2" opacity="1.0"/><path transform="translate(20.00 24.00)" d="M0.81 0.00V-6.57H1.89L3.90 -0.94Q3.88 -1.17 3.86 -1.50Q3.83 -1.83 3.82 -2.19Q3.81 -2.56 3.81 -2.88V-6.57H4.59V0.00H3.51L1.51 -5.62Q1.53 -5.41 1.55 -5.08Q1.57 -4.75 1.58 -4.39Q1.59 -4.02 1.59 -3.69V0.00Z M14.41 0.00V-0.74H16.19V-5.87L14.41 -4.54V-5.46L15.89 -6.57H17.00V-0.74H18.46V0.00Z M24.00 0.00V-1.44H21.03V-2.71L23.42 -6.57H24.34L21.84 -2.53V-2.18H24.00V-3.78H24.81V0.00Z M29.90 0.09Q29.57 0.09 29.36 -0.11Q29.16 -0.31 29.16 -0.62Q29.16 -0.95 29.36 -1.16Q29.57 -1.37 29.90 -1.37Q30.23 -1.37 30.44 -1.16Q30.64 -0.95 30.64 -0.62Q30.64 -0.31 30.44 -0.11Q30.23 0.09 29.90 0.09Z M36.71 0.09Q36.08 0.09 35.60 -0.18Q35.12 -0.44 34.85 -0.91Q34.58 -1.39 34.58 -2.01Q34.58 -2.44 34.74 -2.89Q34.90 -3.35 35.18 -3.84L36.70 -6.57H37.60L35.98 -3.75L36.01 -3.73Q36.12 -3.89 36.36 -3.97Q36.59 -4.05 36.87 -4.05Q37.46 -4.05 37.89 -3.79Q38.33 -3.54 38.58 -3.09Q38.82 -2.64 38.82 -2.04Q38.82 -1.41 38.55 -0.93Q38.28 -0.45 37.81 -0.18Q37.34 0.09 36.71 0.09ZM36.70 -0.63Q37.28 -0.63 37.65 -1.02Q38.01 -1.40 38.01 -2.02Q38.01 -2.65 37.65 -3.03Q37.28 -3.42 36.70 -3.42Q36.11 -3.42 35.75 -3.03Q35.39 -2.65 35.39 -2.02Q35.39 -1.40 35.75 -1.02Q36.11 -0.63 36.70 -0.63Z M43.50 0.09Q42.59 0.09 42.06 -0.44Q41.52 -0.96 41.52 -1.84V-4.72Q41.52 -5.61 42.06 -6.13Q42.59 -6.66 43.50 -6.66Q44.41 -6.66 44.94 -6.13Q45.48 -5.61 45.48 -4.72V-1.84Q45.48 -1.26 45.24 -0.82Q44.99 -0.39 44.55 -0.15Q44.10 0.09 43.50 0.09ZM43.50 -0.60Q44.04 -0.60 44.37 -0.95Q44.70 -1.30 44.70 -1.84V-4.72Q44.70 -5.27 44.37 -5.62Q44.04 -5.97 43.50 -5.97Q42.96 -5.97 42.63 -5.62Q42.30 -5.27 42.30 -4.72V-1.84Q42.30 -1.30 42.63 -0.95Q42.96 -0.60 43.50 -0.60ZM43.50 -2.79Q43.26 -2.79 43.11 -2.92Q42.96 -3.06 42.96 -3.31Q42.96 -3.55 43.11 -3.69Q43.26 -3.82 43.50 -3.82Q43.74 -3.82 43.89 -3.69Q44.04 -3.55 44.04 -3.31Q44.04 -3.06 43.89 -2.92Q43.74 -2.79 43.50 -2.79Z M50.30 -4.05Q49.70 -4.05 49.32 -4.41Q48.95 -4.78 48.95 -5.35Q48.95 -5.94 49.32 -6.30Q49.70 -6.66 50.30 -6.66Q50.90 -6.66 51.28 -6.30Q51.65 -5.94 51.65 -5.35Q51.65 -4.78 51.28 -4.41Q50.90 -4.05 50.30 -4.05ZM50.30 -4.55Q50.64 -4.55 50.85 -4.77Q51.06 -4.99 51.06 -5.35Q51.06 -5.71 50.85 -5.94Q50.64 -6.16 50.30 -6.16Q49.97 -6.16 49.75 -5.94Q49.53 -5.71 49.53 -5.35Q49.53 -4.99 49.75 -4.77Q49.97 -4.55 50.30 -4.55Z M63.90 -2.34Q63.57 -2.34 63.36 -2.54Q63.16 -2.74 63.16 -3.05Q63.16 -3.38 63.36 -3.59Q63.57 -3.80 63.90 -3.80Q64.23 -3.80 64.44 -3.59Q64.64 -3.38 64.64 -3.05Q64.64 -2.74 64.44 -2.54Q64.23 -2.34 63.90 -2.34Z M75.70 0.00V-6.57H79.48V-5.83H76.50V-3.80H79.16V-3.08H76.50V-0.74H79.48V0.00Z M89.21 0.00V-0.74H90.99V-5.87L89.21 -4.54V-5.46L90.69 -6.57H91.80V-0.74H93.26V0.00Z M95.97 0.00V-0.75L98.16 -3.09Q98.64 -3.59 98.84 -3.99Q99.03 -4.38 99.03 -4.76Q99.03 -5.30 98.72 -5.62Q98.41 -5.94 97.88 -5.94Q97.33 -5.94 97.01 -5.61Q96.69 -5.28 96.69 -4.72H95.88Q95.91 -5.62 96.45 -6.14Q96.99 -6.66 97.88 -6.66Q98.79 -6.66 99.33 -6.15Q99.86 -5.63 99.86 -4.75Q99.86 -4.28 99.61 -3.76Q99.35 -3.24 98.73 -2.59L96.95 -0.74H99.94V0.00Z M104.70 0.09Q103.79 0.09 103.26 -0.44Q102.72 -0.96 102.72 -1.84V-4.72Q102.72 -5.61 103.26 -6.13Q103.79 -6.66 104.70 -6.66Q105.61 -6.66 106.14 -6.13Q106.68 -5.61 106.68 -4.72V-1.84Q106.68 -1.26 106.44 -0.82Q106.19 -0.39 105.75 -0.15Q105.30 0.09 104.70 0.09ZM104.70 -0.60Q105.24 -0.60 105.57 -0.95Q105.90 -1.30 105.90 -1.84V-4.72Q105.90 -5.27 105.57 -5.62Q105.24 -5.97 104.70 -5.97Q104.16 -5.97 103.83 -5.62Q103.50 -5.27 103.50 -4.72V-1.84Q103.50 -1.30 103.83 -0.95Q104.16 -0.60 104.70 -0.60ZM104.70 -2.79Q104.46 -2.79 104.31 -2.92Q104.16 -3.06 104.16 -3.31Q104.16 -3.55 104.31 -3.69Q104.46 -3.82 104.70 -3.82Q104.94 -3.82 105.09 -3.69Q105.24 -3.55 105.24 -3.31Q105.24 -3.06 105.09 -2.92Q104.94 -2.79 104.70 -2.79Z M111.50 0.09Q111.17 0.09 110.96 -0.11Q110.76 -0.31 110.76 -0.62Q110.76 -0.95 110.96 -1.16Q111.17 -1.37 111.50 -1.37Q111.83 -1.37 112.04 -1.16Q112.24 -0.95 112.24 -0.62Q112.24 -0.31 112.04 -0.11Q111.83 0.09 111.50 0.09Z M117.35 0.00 118.97 -2.82 118.95 -2.83Q118.86 -2.69 118.61 -2.61Q118.37 -2.52 118.08 -2.52Q117.52 -2.52 117.09 -2.78Q116.66 -3.03 116.42 -3.48Q116.18 -3.93 116.18 -4.53Q116.18 -5.17 116.45 -5.64Q116.72 -6.12 117.19 -6.39Q117.67 -6.66 118.29 -6.66Q118.93 -6.66 119.41 -6.39Q119.88 -6.13 120.15 -5.66Q120.42 -5.18 120.42 -4.56Q120.42 -4.13 120.26 -3.68Q120.10 -3.22 119.82 -2.73L118.30 0.00ZM118.30 -3.15Q118.88 -3.15 119.25 -3.54Q119.61 -3.92 119.61 -4.54Q119.61 -5.17 119.25 -5.55Q118.88 -5.94 118.30 -5.94Q117.71 -5.94 117.35 -5.55Q116.99 -5.17 116.99 -4.54Q116.99 -3.92 117.35 -3.54Q117.71 -3.15 118.30 -3.15Z M125.10 0.09Q124.48 0.09 124.00 -0.15Q123.52 -0.40 123.26 -0.83Q122.99 -1.27 122.99 -1.84Q122.99 -2.46 123.35 -2.91Q123.70 -3.36 124.30 -3.46V-3.48Q123.79 -3.60 123.48 -4.00Q123.17 -4.40 123.17 -4.92Q123.17 -5.44 123.42 -5.83Q123.66 -6.22 124.10 -6.44Q124.53 -6.66 125.10 -6.66Q125.68 -6.66 126.11 -6.44Q126.54 -6.22 126.78 -5.83Q127.03 -5.44 127.03 -4.92Q127.03 -4.40 126.72 -4.00Q126.41 -3.60 125.90 -3.48V-3.46Q126.49 -3.36 126.85 -2.91Q127.21 -2.46 127.21 -1.84Q127.21 -1.27 126.94 -0.83Q126.67 -0.40 126.20 -0.15Q125.73 0.09 125.10 0.09ZM125.10 -3.80Q125.60 -3.80 125.91 -4.09Q126.22 -4.39 126.22 -4.87Q126.22 -5.35 125.91 -5.64Q125.60 -5.94 125.10 -5.94Q124.60 -5.94 124.29 -5.64Q123.98 -5.35 123.98 -4.87Q123.98 -4.39 124.29 -4.09Q124.60 -3.80 125.10 -3.80ZM125.10 -0.64Q125.68 -0.64 126.04 -0.98Q126.40 -1.31 126.40 -1.85Q126.40 -2.40 126.04 -2.74Q125.68 -3.08 125.10 -3.08Q124.52 -3.08 124.16 -2.74Q123.80 -2.40 123.80 -1.85Q123.80 -1.31 124.16 -0.98Q124.52 -0.64 125.10 -0.64Z M131.90 -4.05Q131.30 -4.05 130.92 -4.41Q130.55 -4.78 130.55 -5.35Q130.55 -5.94 130.92 -6.30Q131.30 -6.66 131.90 -6.66Q132.50 -6.66 132.88 -6.30Q133.25 -5.94 133.25 -5.35Q133.25 -4.78 132.88 -4.41Q132.50 -4.05 131.90 -4.05ZM131.90 -4.55Q132.24 -4.55 132.45 -4.77Q132.66 -4.99 132.66 -5.35Q132.66 -5.71 132.45 -5.94Q132.24 -6.16 131.90 -6.16Q131.57 -6.16 131.35 -5.94Q131.13 -5.71 131.13 -5.35Q131.13 -4.99 131.35 -4.77Q131.57 -4.55 131.90 -4.55Z" fill="#7282A2" opacity="1.0"/><path transform="translate(262.60 24.00)" d="M2.74 0.09Q1.78 0.09 1.21 -0.41Q0.65 -0.92 0.65 -1.80H1.46Q1.46 -1.25 1.81 -0.94Q2.16 -0.63 2.74 -0.63Q3.29 -0.63 3.63 -0.95Q3.96 -1.28 3.96 -1.80Q3.96 -2.20 3.75 -2.49Q3.54 -2.78 3.14 -2.89L2.14 -3.17Q1.52 -3.35 1.17 -3.81Q0.81 -4.27 0.81 -4.90Q0.81 -5.43 1.04 -5.82Q1.28 -6.22 1.70 -6.44Q2.12 -6.66 2.67 -6.66Q3.23 -6.66 3.66 -6.44Q4.09 -6.22 4.33 -5.83Q4.57 -5.44 4.57 -4.92H3.76Q3.76 -5.37 3.46 -5.66Q3.15 -5.94 2.67 -5.94Q2.20 -5.94 1.90 -5.66Q1.60 -5.37 1.60 -4.92Q1.60 -4.56 1.80 -4.31Q1.99 -4.05 2.34 -3.95L3.37 -3.66Q4.02 -3.48 4.39 -2.98Q4.75 -2.48 4.75 -1.80Q4.75 -0.94 4.20 -0.42Q3.65 0.09 2.74 0.09Z M7.74 0.00V-0.74H9.09V-5.83H7.74V-6.57H11.25V-5.83H9.91V-0.74H11.25V0.00Z M16.34 0.09Q15.44 0.09 14.91 -0.41Q14.39 -0.92 14.39 -1.80V-4.77Q14.39 -5.65 14.91 -6.16Q15.44 -6.66 16.34 -6.66Q17.22 -6.66 17.74 -6.15Q18.26 -5.64 18.26 -4.77H17.45Q17.45 -5.33 17.16 -5.63Q16.87 -5.93 16.34 -5.93Q15.80 -5.93 15.50 -5.63Q15.20 -5.34 15.20 -4.78V-1.80Q15.20 -1.24 15.50 -0.94Q15.80 -0.63 16.34 -0.63Q16.87 -0.63 17.16 -0.94Q17.45 -1.24 17.45 -1.80V-2.70H16.12V-3.44H18.26V-1.80Q18.26 -0.93 17.74 -0.42Q17.22 0.09 16.34 0.09Z M21.21 0.00V-6.57H22.29L24.30 -0.94Q24.28 -1.17 24.26 -1.50Q24.23 -1.83 24.22 -2.19Q24.21 -2.56 24.21 -2.88V-6.57H24.99V0.00H23.91L21.91 -5.62Q21.93 -5.41 21.95 -5.08Q21.97 -4.75 21.98 -4.39Q21.99 -4.02 21.99 -3.69V0.00Z M27.65 0.00 29.36 -6.57H30.45L32.15 0.00H31.33L30.90 -1.75H28.91L28.48 0.00ZM29.07 -2.43H30.73L30.22 -4.46Q30.08 -5.03 30.00 -5.42Q29.92 -5.80 29.90 -5.92Q29.88 -5.80 29.80 -5.42Q29.72 -5.03 29.58 -4.46Z M35.17 0.00V-6.57H35.98V-0.74H38.95V0.00Z M48.41 0.00V-0.74H50.19V-5.87L48.41 -4.54V-5.46L49.89 -6.57H51.00V-0.74H52.46V0.00Z M56.11 0.00 58.45 -5.83H55.95V-4.77H55.14V-6.57H59.31V-5.81L56.99 0.00Z M63.90 -3.71Q63.53 -3.71 63.34 -3.89Q63.15 -4.07 63.15 -4.37Q63.15 -4.68 63.34 -4.86Q63.53 -5.04 63.90 -5.04Q64.27 -5.04 64.46 -4.86Q64.65 -4.68 64.65 -4.37Q64.65 -4.07 64.46 -3.89Q64.27 -3.71 63.90 -3.71ZM63.90 0.09Q63.53 0.09 63.34 -0.09Q63.15 -0.27 63.15 -0.58Q63.15 -0.88 63.34 -1.06Q63.53 -1.24 63.90 -1.24Q64.27 -1.24 64.46 -1.06Q64.65 -0.88 64.65 -0.58Q64.65 -0.27 64.46 -0.09Q64.27 0.09 63.90 0.09Z M68.81 0.00V-0.74H70.59V-5.87L68.81 -4.54V-5.46L70.29 -6.57H71.40V-0.74H72.86V0.00Z M76.51 0.00 78.85 -5.83H76.35V-4.77H75.54V-6.57H79.71V-5.81L77.39 0.00Z M89.23 0.00V-6.57H91.34Q92.26 -6.57 92.81 -6.04Q93.35 -5.52 93.35 -4.63Q93.35 -3.75 92.81 -3.23Q92.26 -2.70 91.34 -2.70H90.04V0.00ZM90.04 -3.43H91.34Q91.87 -3.43 92.19 -3.76Q92.51 -4.09 92.51 -4.63Q92.51 -5.19 92.19 -5.52Q91.87 -5.84 91.34 -5.84H90.04Z M96.04 0.00V-6.57H96.85V-3.76H98.95V-6.57H99.76V0.00H98.95V-3.02H96.85V0.00Z M104.29 0.00V-5.83H102.49V-6.57H106.90V-5.83H105.10V0.00Z" fill="#7282A2" opacity="1.0"/><path transform="translate(20.00 602.00)" d="M1.04 0.00V-5.84H1.76V-0.66H4.40V0.00Z M6.60 0.00 8.12 -5.84H9.09L10.60 0.00H9.87L9.49 -1.55H7.72L7.34 0.00ZM7.86 -2.16H9.34L8.89 -3.96Q8.76 -4.47 8.69 -4.82Q8.62 -5.16 8.60 -5.26Q8.58 -5.16 8.51 -4.82Q8.44 -4.47 8.31 -3.97Z M14.83 0.08Q13.98 0.08 13.48 -0.37Q12.98 -0.82 12.98 -1.60H13.70Q13.70 -1.11 14.01 -0.84Q14.32 -0.56 14.83 -0.56Q15.33 -0.56 15.62 -0.85Q15.92 -1.14 15.92 -1.60Q15.92 -1.95 15.73 -2.21Q15.54 -2.47 15.19 -2.57L14.30 -2.82Q13.75 -2.98 13.44 -3.39Q13.12 -3.80 13.12 -4.36Q13.12 -4.82 13.33 -5.18Q13.54 -5.53 13.91 -5.72Q14.29 -5.92 14.78 -5.92Q15.27 -5.92 15.65 -5.72Q16.03 -5.53 16.25 -5.18Q16.46 -4.83 16.46 -4.38H15.74Q15.74 -4.78 15.47 -5.03Q15.20 -5.28 14.78 -5.28Q14.35 -5.28 14.09 -5.03Q13.82 -4.78 13.82 -4.38Q13.82 -4.06 14.00 -3.83Q14.17 -3.60 14.48 -3.51L15.39 -3.26Q15.98 -3.10 16.30 -2.65Q16.62 -2.21 16.62 -1.60Q16.62 -0.83 16.14 -0.38Q15.65 0.08 14.83 0.08Z M20.64 0.00V-5.18H19.04V-5.84H22.96V-5.18H21.36V0.00Z M31.74 0.00V-5.84H33.54Q34.06 -5.84 34.46 -5.63Q34.85 -5.42 35.06 -5.04Q35.28 -4.66 35.28 -4.16Q35.28 -3.57 34.98 -3.14Q34.67 -2.72 34.17 -2.55L35.36 0.00H34.57L33.42 -2.48H32.46V0.00ZM32.46 -3.13H33.54Q33.99 -3.13 34.26 -3.41Q34.54 -3.70 34.54 -4.16Q34.54 -4.63 34.26 -4.91Q33.99 -5.19 33.54 -5.19H32.46Z M38.00 0.00V-5.84H41.36V-5.18H38.71V-3.38H41.08V-2.74H38.71V-0.66H41.36V0.00Z M45.83 0.08Q45.03 0.08 44.57 -0.37Q44.10 -0.82 44.10 -1.60V-4.24Q44.10 -5.02 44.57 -5.47Q45.03 -5.92 45.83 -5.92Q46.62 -5.92 47.08 -5.47Q47.54 -5.02 47.54 -4.24H46.82Q46.82 -4.74 46.56 -5.00Q46.30 -5.27 45.83 -5.27Q45.36 -5.27 45.09 -5.01Q44.82 -4.74 44.82 -4.25V-1.60Q44.82 -1.10 45.09 -0.83Q45.36 -0.56 45.83 -0.56Q46.30 -0.56 46.56 -0.83Q46.82 -1.10 46.82 -1.60V-2.40H45.64V-3.06H47.54V-1.60Q47.54 -0.82 47.08 -0.37Q46.62 0.08 45.83 0.08Z M50.40 0.00V-5.84H53.76V-5.18H51.11V-3.38H53.48V-2.74H51.11V-0.66H53.76V0.00Z M56.52 0.00V-5.84H57.48L59.26 -0.84Q59.25 -1.04 59.23 -1.33Q59.21 -1.62 59.20 -1.95Q59.18 -2.27 59.18 -2.56V-5.84H59.88V0.00H58.92L57.14 -5.00Q57.16 -4.81 57.18 -4.52Q57.19 -4.22 57.20 -3.90Q57.22 -3.58 57.22 -3.28V0.00Z M70.60 0.08Q69.79 0.08 69.32 -0.39Q68.84 -0.86 68.84 -1.64V-4.20Q68.84 -4.98 69.32 -5.45Q69.79 -5.92 70.60 -5.92Q71.41 -5.92 71.88 -5.45Q72.36 -4.98 72.36 -4.20V-1.64Q72.36 -1.12 72.14 -0.73Q71.93 -0.34 71.53 -0.13Q71.14 0.08 70.60 0.08ZM70.60 -0.54Q71.08 -0.54 71.37 -0.84Q71.66 -1.15 71.66 -1.64V-4.20Q71.66 -4.69 71.37 -5.00Q71.08 -5.30 70.60 -5.30Q70.12 -5.30 69.83 -5.00Q69.54 -4.69 69.54 -4.20V-1.64Q69.54 -1.15 69.83 -0.84Q70.12 -0.54 70.60 -0.54ZM70.60 -2.48Q70.38 -2.48 70.25 -2.60Q70.12 -2.72 70.12 -2.94Q70.12 -3.16 70.25 -3.28Q70.38 -3.39 70.60 -3.39Q70.82 -3.39 70.95 -3.28Q71.08 -3.16 71.08 -2.94Q71.08 -2.72 70.95 -2.60Q70.82 -2.48 70.60 -2.48Z M77.60 0.00V-1.28H74.96V-2.41L77.09 -5.84H77.90L75.68 -2.25V-1.94H77.60V-3.36H78.32V0.00Z M83.00 -3.30Q82.67 -3.30 82.50 -3.46Q82.34 -3.62 82.34 -3.89Q82.34 -4.16 82.50 -4.32Q82.67 -4.48 83.00 -4.48Q83.33 -4.48 83.50 -4.32Q83.66 -4.16 83.66 -3.89Q83.66 -3.62 83.50 -3.46Q83.33 -3.30 83.00 -3.30ZM83.00 0.08Q82.67 0.08 82.50 -0.08Q82.34 -0.24 82.34 -0.51Q82.34 -0.78 82.50 -0.94Q82.67 -1.10 83.00 -1.10Q83.33 -1.10 83.50 -0.94Q83.66 -0.78 83.66 -0.51Q83.66 -0.24 83.50 -0.08Q83.33 0.08 83.00 0.08Z M87.52 0.00V-0.66H89.10V-5.22L87.52 -4.03V-4.86L88.84 -5.84H89.82V-0.66H91.12V0.00Z M95.35 0.08Q94.54 0.08 94.07 -0.37Q93.60 -0.82 93.60 -1.60H94.32Q94.32 -1.12 94.60 -0.84Q94.88 -0.56 95.36 -0.56Q95.84 -0.56 96.12 -0.84Q96.40 -1.12 96.40 -1.60V-1.96Q96.40 -2.44 96.13 -2.72Q95.86 -3.00 95.39 -3.00H93.80V-5.84H96.91V-5.18H94.47L94.49 -3.66H95.43Q96.24 -3.66 96.68 -3.21Q97.12 -2.77 97.12 -1.96V-1.60Q97.12 -0.82 96.64 -0.37Q96.17 0.08 95.35 0.08Z M107.80 0.08Q106.98 0.08 106.55 -0.37Q106.12 -0.82 106.12 -1.60V-5.84H106.84V-1.60Q106.84 -1.12 107.08 -0.84Q107.31 -0.56 107.80 -0.56Q108.28 -0.56 108.52 -0.84Q108.76 -1.12 108.76 -1.60V-5.84H109.48V-1.60Q109.48 -0.82 109.05 -0.37Q108.62 0.08 107.80 0.08Z M113.64 0.00V-5.18H112.04V-5.84H115.96V-5.18H114.36V0.00Z M120.26 0.08Q119.46 0.08 119.00 -0.37Q118.54 -0.82 118.54 -1.60V-4.24Q118.54 -5.02 119.00 -5.47Q119.46 -5.92 120.26 -5.92Q121.05 -5.92 121.51 -5.47Q121.98 -5.02 121.98 -4.24H121.26Q121.26 -4.74 121.00 -5.00Q120.74 -5.27 120.26 -5.27Q119.79 -5.27 119.52 -5.00Q119.26 -4.74 119.26 -4.24V-1.60Q119.26 -1.10 119.52 -0.84Q119.79 -0.57 120.26 -0.57Q120.74 -0.57 121.00 -0.84Q121.26 -1.10 121.26 -1.60H121.98Q121.98 -0.82 121.51 -0.37Q121.05 0.08 120.26 0.08Z" fill="#7282A2" opacity="1.0"/><path transform="translate(324.20 602.00)" d="M2.43 0.08Q1.58 0.08 1.08 -0.37Q0.58 -0.82 0.58 -1.60H1.30Q1.30 -1.11 1.61 -0.84Q1.92 -0.56 2.43 -0.56Q2.93 -0.56 3.22 -0.85Q3.52 -1.14 3.52 -1.60Q3.52 -1.95 3.33 -2.21Q3.14 -2.47 2.79 -2.57L1.90 -2.82Q1.35 -2.98 1.04 -3.39Q0.72 -3.80 0.72 -4.36Q0.72 -4.82 0.93 -5.18Q1.14 -5.53 1.51 -5.72Q1.89 -5.92 2.38 -5.92Q2.87 -5.92 3.25 -5.72Q3.63 -5.53 3.85 -5.18Q4.06 -4.83 4.06 -4.38H3.34Q3.34 -4.78 3.07 -5.03Q2.80 -5.28 2.38 -5.28Q1.95 -5.28 1.69 -5.03Q1.42 -4.78 1.42 -4.38Q1.42 -4.06 1.60 -3.83Q1.77 -3.60 2.08 -3.51L2.99 -3.26Q3.58 -3.10 3.90 -2.65Q4.22 -2.21 4.22 -1.60Q4.22 -0.83 3.74 -0.38Q3.25 0.08 2.43 0.08Z M8.66 0.08Q7.86 0.08 7.40 -0.37Q6.94 -0.82 6.94 -1.60V-4.24Q6.94 -5.02 7.40 -5.47Q7.86 -5.92 8.66 -5.92Q9.45 -5.92 9.91 -5.47Q10.38 -5.02 10.38 -4.24H9.66Q9.66 -4.74 9.40 -5.00Q9.14 -5.27 8.66 -5.27Q8.19 -5.27 7.92 -5.00Q7.66 -4.74 7.66 -4.24V-1.60Q7.66 -1.10 7.92 -0.84Q8.19 -0.57 8.66 -0.57Q9.14 -0.57 9.40 -0.84Q9.66 -1.10 9.66 -1.60H10.38Q10.38 -0.82 9.91 -0.37Q9.45 0.08 8.66 0.08Z M13.14 0.00V-5.84H14.94Q15.46 -5.84 15.86 -5.63Q16.25 -5.42 16.46 -5.04Q16.68 -4.66 16.68 -4.16Q16.68 -3.57 16.38 -3.14Q16.07 -2.72 15.57 -2.55L16.76 0.00H15.97L14.82 -2.48H13.86V0.00ZM13.86 -3.13H14.94Q15.39 -3.13 15.66 -3.41Q15.94 -3.70 15.94 -4.16Q15.94 -4.63 15.66 -4.91Q15.39 -5.19 14.94 -5.19H13.86Z M21.00 0.08Q20.22 0.08 19.76 -0.38Q19.30 -0.83 19.30 -1.68V-4.16Q19.30 -5.01 19.76 -5.46Q20.22 -5.92 21.00 -5.92Q21.78 -5.92 22.24 -5.46Q22.70 -5.01 22.70 -4.17V-1.68Q22.70 -0.83 22.24 -0.38Q21.78 0.08 21.00 0.08ZM21.00 -0.57Q21.47 -0.57 21.72 -0.84Q21.98 -1.10 21.98 -1.60V-4.24Q21.98 -4.74 21.72 -5.00Q21.47 -5.27 21.00 -5.27Q20.54 -5.27 20.28 -5.00Q20.02 -4.74 20.02 -4.24V-1.60Q20.02 -1.10 20.28 -0.84Q20.54 -0.57 21.00 -0.57Z M25.84 0.00V-5.84H26.56V-0.66H29.20V0.00Z M32.04 0.00V-5.84H32.76V-0.66H35.40V0.00Z" fill="#7282A2" opacity="1.0"/><rect class="caret" x="366.0" y="595.0" width="4.0" height="9.0" rx="0" fill="#8FD3FF" opacity="0.8"/><rect x="12" y="12" width="366" height="596" fill="none" stroke="#1B2748" stroke-width="0.7" opacity="0.5"/><rect width="390" height="620" fill="url(#vig)"/><rect width="390" height="620" filter="url(#grain)" opacity="0.054"/></svg>